<?xml version="1.0" encoding="UTF-8" standalone="no"?>
<!--
  - Copyright (c) 2022.  BraveGrumpy.
  - Do not reproduce contents without express written permission from the author.
  - You can get permission by cloning the repository https://github.com/robin-zollner/bravegrumpy.website.git, and creating a new branch.
  - Otherwise, you can email seacrestskylar@gmail.com, or join the discord server, linked within each page.
  - The purpose of this website, is to practice responsive web design, and to publish creative writing.
  -->

<!-- Created with Inkscape (http://www.inkscape.org/) -->

<svg
   width="512"
   height="512"
   viewBox="0 0 512 512"
   version="1.1"
   id="svg5"
   inkscape:version="1.2 (dc2aedaf03, 2022-05-15)"
   sodipodi:docname="drawing.svg"
   inkscape:export-filename="drawing.png"
   inkscape:export-xdpi="96"
   inkscape:export-ydpi="96"
   xmlns:inkscape="http://www.inkscape.org/namespaces/inkscape"
   xmlns:sodipodi="http://sodipodi.sourceforge.net/DTD/sodipodi-0.dtd"
   xmlns="http://www.w3.org/2000/svg"
   xmlns:svg="http://www.w3.org/2000/svg">
  <sodipodi:namedview
     id="namedview7"
     pagecolor="#ffffff"
     bordercolor="#000000"
     borderopacity="0.25"
     inkscape:showpageshadow="2"
     inkscape:pageopacity="0.0"
     inkscape:pagecheckerboard="0"
     inkscape:deskcolor="#d1d1d1"
     inkscape:document-units="px"
     showgrid="false"
     inkscape:zoom="1.1697646"
     inkscape:cx="120.96451"
     inkscape:cy="252.1875"
     inkscape:window-width="1920"
     inkscape:window-height="1027"
     inkscape:window-x="-8"
     inkscape:window-y="1068"
     inkscape:window-maximized="1"
     inkscape:current-layer="layer2" />
  <defs
     id="defs2">
    <inkscape:path-effect
       effect="bspline"
       id="path-effect19883"
       is_visible="true"
       lpeversion="1"
       weight="33.333333"
       steps="2"
       helper_size="0"
       apply_no_weight="true"
       apply_with_weight="true"
       only_selected="false" />
    <inkscape:path-effect
       effect="bspline"
       id="path-effect19879"
       is_visible="true"
       lpeversion="1"
       weight="33.333333"
       steps="2"
       helper_size="0"
       apply_no_weight="true"
       apply_with_weight="true"
       only_selected="false" />
    <inkscape:path-effect
       effect="bspline"
       id="path-effect19867"
       is_visible="true"
       lpeversion="1"
       weight="33.333333"
       steps="2"
       helper_size="0"
       apply_no_weight="true"
       apply_with_weight="true"
       only_selected="false" />
    <inkscape:path-effect
       effect="bspline"
       id="path-effect1026"
       is_visible="true"
       lpeversion="1"
       weight="33.333333"
       steps="2"
       helper_size="0"
       apply_no_weight="true"
       apply_with_weight="true"
       only_selected="false" />
    <inkscape:path-effect
       effect="bspline"
       id="path-effect1022"
       is_visible="true"
       lpeversion="1"
       weight="33.333333"
       steps="2"
       helper_size="0"
       apply_no_weight="true"
       apply_with_weight="true"
       only_selected="false" />
    <inkscape:path-effect
       effect="bspline"
       id="path-effect1018"
       is_visible="true"
       lpeversion="1"
       weight="33.333333"
       steps="2"
       helper_size="0"
       apply_no_weight="true"
       apply_with_weight="true"
       only_selected="false" />
    <rect
       x="42.011732"
       y="112.6254"
       width="457.26475"
       height="183.95514"
       id="rect186" />
  </defs>
  <g
     inkscape:groupmode="layer"
     id="layer2"
     inkscape:label="Backdrop">
    <rect
       style="fill:#270d3e;fill-opacity:1;stroke:none;stroke-width:2.00895;stroke-linejoin:round;stroke-dasharray:none;stroke-opacity:1"
       id="rect1806"
       width="512"
       height="512"
       x="0"
       y="0" />
  </g>
  <g
     inkscape:label="Layer 1"
     inkscape:groupmode="layer"
     id="layer1"
     style="fill:#55aa5c;fill-opacity:1;stroke:#55aa5c;stroke-opacity:1">
    <g
       id="g1738"
       inkscape:label="B "
       style="stroke:#55aa5c;stroke-opacity:1;fill:#55aa5c;fill-opacity:1">
      <path
         style="fill:#55aa5c;fill-opacity:1;stroke:#55aa5c;stroke-width:4.2;stroke-linejoin:round;stroke-dasharray:none;stroke-opacity:1"
         id="path1965"
         d="m 118.17184,55.924648 c -7.10954,4.780194 -12.56324,11.742105 -18.462258,17.97567 -1.92161,2.073302 -3.69325,4.277749 -5.41312,6.519107 -1.87517,2.504716 -3.51657,5.185058 -5.08016,7.893242 -1.03186,1.942217 -2.21792,3.911 -2.85205,6.036351 -0.0458,0.153604 -0.41691,2.259505 -0.44322,2.406954 -0.49657,2.370776 -0.73696,4.784598 -0.81831,7.202538 -0.0657,2.48989 -0.0826,4.98125 -0.21292,7.46886 -0.12959,2.75904 -0.2548,5.51898 -0.58708,8.262 -0.48379,3.15651 -0.99361,6.3005 -1.25624,9.48497 -0.25265,4.23053 -0.66531,8.44871 -1.16636,12.65636 -0.60129,4.70989 -1.19587,9.41898 -1.68106,14.14258 -0.41647,4.29434 -1.05032,8.56307 -1.73426,12.82165 -0.58496,3.5067 -1.23582,7.00151 -1.82726,10.50713 -0.67196,3.76303 -1.05827,7.56315 -1.44938,11.36252 -0.4376,3.9654 -1.06674,7.90516 -1.62687,11.85396 -0.513784,3.59296 -1.07817,7.17778 -1.694659,10.75462 -0.646214,3.82547 -1.512669,7.60785 -2.420287,11.37812 -0.810654,3.94329 -2.074597,7.76784 -3.267478,11.60575 -0.826003,2.66914 -1.481044,5.38172 -2.573449,7.95823 -1.129669,2.48463 -2.681347,4.748 -4.219613,6.99239 -1.714151,2.49336 -3.463141,4.96123 -5.252192,7.40137 -1.251706,1.6326 -2.349423,3.37874 -3.436435,5.12377 -1.060703,1.73817 -2.312909,3.34131 -3.579926,4.93058 -1.466648,1.74022 -2.979535,3.44015 -4.456315,5.17156 -1.335361,1.52881 -2.471194,3.21287 -3.688552,4.83392 -0.657643,0.8645 -1.349185,1.70137 -2.134833,2.45363 -0.273769,0.26214 -1.11354,1.02825 -0.846152,0.75961 15.946834,-16.02158 33.639226,-33.62113 24.105609,-24.13659 -3.038554,2.60236 -6.089501,5.19159 -9.08452,7.84468 -2.318798,1.89066 -4.380883,4.04224 -6.474015,6.16718 -6.455796,6.55389 -12.935023,13.08465 -19.402534,19.62698 -1.05172,1.7599 1.689785,-0.0602 1.898972,-0.16724 0.374748,-0.19172 0.754104,-0.3743 1.131155,-0.56145 -0.297331,0.0382 2.177546,-0.95387 1.842215,-0.35696 -0.20935,0.37266 -0.564276,0.64219 -0.846414,0.96328 0,0 0.608702,-0.44832 0.608702,-0.44832 v 0 c 2.068334,-2.35852 4.551099,-4.30803 6.841405,-6.44243 3.228197,-2.79164 6.545616,-5.48252 9.645393,-8.41963 -31.912184,32.15932 -22.212667,20.81385 -14.297946,15.24326 2.041701,-1.29835 4.180111,-2.41362 6.167464,-3.79394 11.93475,-8.2279 21.786548,-19.37904 30.515032,-30.91964 1.206504,-1.5844 2.452407,-3.13362 3.774413,-4.62419 1.49455,-1.74776 2.99245,-3.49882 4.34698,-5.35873 1.22149,-1.69505 2.36126,-3.4446 3.48371,-5.20648 1.10193,-1.64586 2.23281,-3.26971 3.38321,-4.8819 1.64838,-2.40558 3.24471,-4.84641 4.86927,-7.26803 1.59413,-2.50612 3.13954,-5.0592 3.98474,-7.93255 0.76524,-2.61226 1.38107,-5.26594 2.14366,-7.87941 1.06378,-3.86684 2.01858,-7.76107 2.9914,-11.65153 0.8628,-3.86929 1.73437,-7.74006 2.388258,-11.6513 0.57202,-3.59097 1.09161,-7.19005 1.58467,-10.79267 0.52626,-3.93046 0.99343,-7.86849 1.44669,-11.80795 0.4874,-3.80406 1.09815,-7.59 1.76995,-11.36579 0.61337,-3.48911 1.21153,-6.9812 1.65771,-10.49654 0.54009,-4.23599 1.01125,-8.47954 1.41879,-12.73042 0.52713,-4.71695 1.10864,-9.42668 1.72752,-14.13255 0.50085,-4.30237 0.92928,-8.61255 1.46201,-12.91102 0.48194,-3.22106 1.06698,-6.428222 1.39571,-9.670325 0.23381,-2.825601 0.4169,-5.654946 0.53987,-8.487665 0.0988,-2.488634 0.16116,-4.980083 0.34693,-7.464196 0.25235,-2.293592 0.60211,-4.573136 1.08877,-6.829685 0.16967,-0.783975 0.43667,-1.5513 0.52379,-2.348681 0.10044,-0.919218 -0.28283,-1.909519 -0.4485,-2.796162 -0.26317,-1.33864 -0.14119,-2.083846 0.35534,-3.37261 0.5984,-1.327975 1.3725,-2.580729 2.28019,-3.719879 4.80108,-5.595962 0.34095,-0.362221 -13.18979,13.028216 -0.34504,0.341463 0.66571,-0.706713 0.9968,-1.061711 1.05044,-1.126261 2.1089,-2.244254 3.16327,-3.366849 0,0 10.04456,-13.776015 10.04456,-13.776015 z" />
      <path
         style="fill:#55aa5c;fill-opacity:1;stroke:#55aa5c;stroke-width:4.2;stroke-linejoin:round;stroke-dasharray:none;stroke-opacity:1"
         id="path1967"
         d="m 38.311286,285.21819 c 3.039874,-2.78751 5.666882,-5.97027 8.469851,-8.98568 2.250824,-2.41776 4.481781,-4.85026 6.798447,-7.20588 9.474111,-9.25865 -0.17942,0.16616 -22.994715,23.02461 -0.43842,0.43925 0.889976,-0.8652 1.336909,-1.29578 1.288192,-1.24107 2.58874,-2.46817 3.897984,-3.68695 3.004211,-2.79313 6.109242,-5.4721 9.414729,-7.90232 2.979436,-2.20049 6.294645,-3.79195 9.773866,-5.01401 3.739622,-1.16106 7.634894,-1.68003 11.540827,-1.70364 3.601614,0.0467 7.076308,0.91439 10.450268,2.10659 3.10656,1.2302 6.05763,2.8112 9.0315,4.3256 3.36375,1.7034 6.57585,3.68249 9.87367,5.50597 3.07997,1.72661 6.274058,3.24132 9.350068,4.97327 1.50312,0.84714 2.90431,1.85161 4.25766,2.91678 1.58954,1.36999 3.53657,2.14583 5.48333,2.85416 2.80491,0.91678 5.70752,1.49176 8.59785,2.06574 3.20318,0.64542 6.46669,0.80381 9.72359,0.89775 3.26742,0.0644 6.53486,-0.019 9.80008,-0.13399 1.86846,-0.0816 3.73991,-0.0931 5.60828,-0.008 0.98301,0.0533 1.92756,0.0908 2.88129,-0.18283 1.29749,-0.4914 2.48976,-1.23341 3.69054,-1.92299 1.09742,-0.64399 2.19457,-1.28863 3.2908,-1.93491 1.05626,-0.56403 2.00765,-1.27974 2.98892,-1.9584 8.73572,-8.25019 17.35089,-17.32919 25.53186,-25.56655 0.20635,-0.20778 0.32928,-0.51101 0.43905,-0.776 0.0529,-0.45819 0.47686,-0.76393 0.67237,-1.16264 0.0237,-0.46758 0.16392,-0.84085 0.39804,-1.2647 0.41144,-0.57552 0.25418,-1.24257 0.59334,-1.85529 0.43244,-0.84349 1.04695,-1.55519 1.60516,-2.31279 0.44319,-0.59711 1.01541,-1.17854 0.97483,-1.96365 0.42575,-1.29538 1.06079,-2.47313 1.36609,-3.81046 0.10452,-0.66941 0.64896,-1.78572 0.52425,-2.46713 -0.0411,-0.22427 -0.32712,-0.35406 -0.36405,-0.57903 -0.0538,-0.32757 0.0771,-0.65951 0.10647,-0.99016 0.0287,-0.32344 0.0452,-0.64786 0.0678,-0.97179 0.0671,-0.86228 1.65805,-3.34311 0.5688,-3.89858 -0.16847,-0.0859 -0.36905,-0.0828 -0.55358,-0.12416 -0.24781,-0.118 -0.59313,-0.17109 -0.56682,-0.55446 0.0332,-0.48325 0.7027,-2.007 0.88941,-2.56469 0.0699,-0.20842 0.1398,-0.41685 0.2097,-0.62528 0,0 -0.59043,0.47212 -0.59043,0.47212 v 0 c -0.0699,0.20842 -0.13982,0.41684 -0.20972,0.62526 -0.27547,0.81777 -0.48522,1.80285 -0.89067,2.5631 -0.3678,0.68964 -1.20738,1.72515 -1.63986,2.29226 -1.0885,1.34629 -2.26261,2.69339 -3.13339,4.19933 -0.4631,0.80088 -0.57976,1.35726 -0.95663,2.19803 -0.20919,0.46669 -0.44807,0.91949 -0.67211,1.37924 -0.66028,1.11998 -1.2553,2.28068 -1.97573,3.36295 -0.43848,0.65872 -0.95277,1.26413 -1.40617,1.91267 -0.90335,1.29215 -1.68588,2.66989 -2.6034,3.95319 -1.32925,1.86013 -2.50624,3.82801 -3.96351,5.59037 -0.94768,1.00457 -1.92153,1.99588 -2.69169,3.14873 -0.61465,0.86156 -1.18449,1.75337 -1.82505,2.59727 -0.96251,1.30165 -2.15195,2.39222 -3.25311,3.57197 -1.05285,1.11942 -2.1469,2.19189 -3.32835,3.17676 -1.0395,0.96617 -1.97248,2.04114 -3.04348,2.97364 -11.64031,10.07596 27.1001,-24.46971 21.55267,-21.93459 -0.567,0.68093 -1.48649,1.05284 -2.16303,1.61659 -1.09665,0.72662 -2.21604,1.41557 -3.33132,2.11241 -1.07073,0.66619 -2.16118,1.30677 -3.22567,1.97418 -0.61086,0.44438 -1.08251,1.05376 -1.89736,1.09191 -1.96277,0.38326 -3.97508,0.39144 -5.96271,0.55338 -3.23299,0.22858 -6.46796,0.48741 -9.71221,0.45006 -3.05838,-0.0394 -6.1192,-0.15804 -9.1445,-0.64685 -2.70977,-0.47597 -5.42631,-0.97012 -8.0605,-1.77817 -1.57681,-0.5613 -3.09948,-1.19914 -4.33864,-2.36231 -1.58758,-1.22276 -3.38005,-2.07338 -5.21018,-2.87695 -3.17558,-1.54648 -6.3102,-3.17769 -9.47008,-4.7561 -3.33326,-1.79251 -6.53613,-3.80286 -9.82691,-5.67032 -3.09047,-1.62665 -6.18347,-3.26899 -9.41626,-4.59879 -3.688538,-1.3834 -7.474108,-2.5514 -11.436638,-2.77064 -1.34182,-0.0743 -2.86393,-0.18576 -4.20972,-0.15121 -2.74536,0.0705 -5.4502,0.63762 -8.14585,1.10406 -3.83033,0.86034 -7.478248,2.18609 -10.776471,4.36788 -3.416792,2.22857 -6.645322,4.69932 -9.668633,7.44338 -11.717031,10.35787 -22.310216,21.94601 -33.39789,32.94442 -2.147352,2.2825 -4.306249,4.57761 -6.202933,7.07426 -0.679951,0.95614 -2.415276,3.01794 -2.727379,4.02325 -0.05015,0.16153 0.09959,0.36493 0.176577,0.49182 0,0 23.050443,-16.9663 23.050443,-16.9663 z" />
      <path
         style="fill:#55aa5c;fill-opacity:1;stroke:#55aa5c;stroke-width:4.32609;stroke-linejoin:round;stroke-dasharray:none;stroke-opacity:1"
         id="path1969"
         d="m 113.54177,64.802558 c 1.95276,0.124517 3.78835,0.799523 5.54923,1.662027 2.09911,0.935705 3.9921,2.312953 5.87622,3.653064 2.58244,1.927032 5.34663,3.533334 8.17699,5.002705 2.26121,1.120159 4.50009,2.293328 6.77702,3.377164 2.77504,1.244922 5.4723,2.667815 8.15893,4.111991 2.81718,1.522735 5.57715,3.162842 8.30296,4.862067 1.00882,0.79029 2.30357,1.29658 3.09161,2.372538 0.13393,0.473324 0.26789,0.408577 0.63565,0.705635 -0.91,-1.038704 -1.79547,-2.10232 -2.72998,-3.116113 -0.14976,-0.162462 0.16452,0.433412 0.31611,0.593944 0.89739,0.915843 1.79478,1.831687 2.69217,2.74753 -0.19735,-0.257324 -0.26709,-0.281207 -0.11277,-0.200555 0.1913,0.06094 -0.94699,-0.972298 -0.10056,-0.234086 0.48636,0.513724 1.36319,1.433543 -0.62704,-0.751844 -0.49794,-0.643623 -0.19559,-0.0753 -0.2238,0.419032 -0.0317,0.174664 0.0933,0.158273 0.19378,0.175764 0.0282,0.469756 0.18696,0.26279 -0.5546,-0.595791 -0.0464,-0.05367 -0.0291,0.14591 -0.0668,0.206692 -0.1,0.05558 -0.0156,0.08631 -0.0162,0.0899 1.62675,2.185639 0.63277,0.08449 0.50187,0.219372 -0.0853,0.0879 0.0701,0.243493 0.0793,0.369421 0.18158,0.655875 0.36198,1.322787 0.53132,1.989152 0.21298,1.148638 0.44735,2.291589 0.63843,3.444843 0.23737,1.286165 0.38994,2.582844 0.50774,3.888689 0.19354,1.236751 0.18494,2.493841 0.19716,3.743611 0.0293,1.50037 -0.15841,2.99997 -0.3675,4.48117 -0.30688,2.1078 -0.62091,4.21499 -1.01312,6.30713 -0.39023,2.71642 -1.09638,5.35193 -2.03201,7.90847 -1.33705,3.33905 -2.76259,6.62979 -4.32112,9.85888 -1.87331,4.02043 -4.45801,7.56346 -7.06261,11.06458 -2.54801,3.33878 -5.20101,6.57947 -7.97739,9.70501 -1.3518,1.48863 -2.72244,2.95812 -4.098,4.42192 -0.48612,0.5173 -1.95001,2.06326 -1.46384,1.54604 23.36314,-24.85561 31.77559,-33.68874 22.29134,-23.72329 -2.93362,3.00574 -5.88383,5.99264 -8.8107,9.00587 -14.99181,15.9124 -56.075456,59.5792 -5.85799,6.25273 0.56967,-0.60494 -1.13013,1.21972 -1.70337,1.82083 -0.56672,0.59428 -1.14426,1.17679 -1.71639,1.76518 -2.59751,2.63254 -5.29241,5.1523 -7.9704,7.69093 -1.98776,1.89229 -4.01496,3.736 -5.96788,5.66917 -0.3207,0.32914 -0.64671,0.65254 -0.96212,0.98742 -8.52616,9.05261 -17.03352,18.12522 -25.562433,27.1749 -7.96313,8.44934 31.734773,-33.92163 23.865073,-25.3739 -8.3506,9.07008 -16.88371,17.94816 -25.307871,26.94101 -0.429935,0.45896 -0.8222,0.95652 -1.249058,1.41871 41.312039,-45.99307 29.355649,-29.99658 19.470819,-21.12109 -0.972,0.80866 -1.83811,1.77102 -2.85891,2.51322 -65.876246,70.1784 -0.24455,0.25215 -0.32712,0.37319 -44.136619,64.69849 -18.577917,15.63099 -24.880694,26.85774 -0.10114,0.10185 -0.03516,0.30618 -0.12923,0.40988 -0.04455,0.0491 -0.232279,0.10471 -0.183761,0.0602 0.167429,-0.15367 0.369999,-0.25809 0.549315,-0.39577 1.262204,-0.96901 2.556193,-1.89415 3.774974,-2.92409 3.274505,-2.76718 6.466969,-5.64237 9.700459,-8.46355 -0.848591,0.76037 -1.697183,1.52074 -2.545774,2.28112 0,0 -0.467954,0.63017 -0.467954,0.63017 v 0 c 0.05954,0.36887 0.119091,0.73773 0.178647,1.1066 3.801798,-3.26367 7.603608,-6.52733 11.405408,-9.79099 1.50241,-1.25654 3.01739,-2.49625 4.50722,-3.76959 0.93192,-0.79648 0.6769,-0.78261 1.24281,-1.32309 0.0918,-0.0909 0.13232,-0.23306 0.22976,-0.31716 0.0588,-0.0508 0.14272,-0.0541 0.21407,-0.081 -8.08274,8.62577 -16.16547,17.25153 -24.248201,25.8773 0.122418,-0.10727 65.024011,-69.21328 0.378281,-0.38539 0.760437,-1.14007 1.88461,-1.95216 2.805563,-2.93155 10.663127,-9.76013 20.945187,-15.10129 29.603657,-30.64368 0.42022,-0.47208 1.7206,-1.84737 1.28867,-1.38741 -7.96577,8.48265 -31.928106,33.86111 -23.907141,25.43749 85.335651,-89.61952 -16.791261,16.79 2.624231,-2.82228 1.80956,-1.95763 3.6896,-3.82599 5.69011,-5.56305 2.79185,-2.61405 5.50742,-5.31892 8.28137,-7.95456 10.35108,-10.03909 19.59717,-20.53223 29.76702,-31.33903 0.44465,-0.4725 1.77355,-1.89541 1.32871,-1.4231 -7.87209,8.35829 -15.74131,16.71962 -23.61047,25.08102 -0.49222,0.52301 0.98645,-1.0439 1.47967,-1.56584 2.81089,-2.96879 5.70712,-5.84146 8.59261,-8.72763 11.57791,-11.69017 22.85413,-23.74192 33.80367,-36.09905 2.68511,-3.22514 5.30839,-6.51442 7.74609,-9.95626 2.49601,-3.62535 4.74173,-7.42006 6.49185,-11.52162 1.56443,-3.48159 3.31741,-6.91895 4.35911,-10.626592 0.65197,-2.720406 1.18519,-5.468057 1.68425,-8.224573 0.37164,-2.204307 0.76385,-4.407802 0.96995,-6.638326 0.12904,-1.669775 0.18802,-3.339781 0.0845,-5.014184 -0.0848,-1.323165 -0.28303,-2.625851 -0.45929,-3.937725 -0.20319,-1.383811 -0.40391,-2.769649 -0.64156,-4.145921 -0.24079,-1.127426 -0.45524,-2.258586 -0.63568,-3.398907 -0.0822,-0.700572 -0.17589,-1.411393 -0.19952,-2.11054 -0.028,-0.145861 -0.004,-0.302428 -0.0477,-0.443702 -0.18432,-0.589927 -1.01794,-1.337859 0.39849,-0.212025 -0.005,0.0021 -0.0112,0.0029 -0.0159,0.0063 -0.43495,0.38058 -0.68241,-1.178144 -0.6233,-0.521274 0.0523,-0.04294 0.17181,-0.117507 0.0659,-0.193294 -0.29705,-0.128716 -0.34825,-0.426672 -0.57107,-0.712985 -1.68827,-1.870748 -1.22748,-1.522595 -0.85774,-0.848589 0.72409,0.69706 -0.52473,-0.559072 -0.62402,-0.493239 -0.10844,-0.08208 -0.42007,-0.345641 -0.32532,-0.246234 0.69408,0.728224 6.9719,7.62457 0.42322,-0.01182 0.47461,0.388702 0.41948,0.222283 -0.11556,0.303015 -1.37223,-0.169493 -2.53589,-1.074602 -3.82341,-1.541493 -2.88941,-1.446414 -5.77742,-2.900711 -8.55613,-4.579881 -2.65272,-1.53831 -5.30872,-3.071503 -7.98828,-4.556169 -2.25177,-1.177364 -4.55327,-2.239963 -6.86744,-3.270907 -2.71117,-1.30029 -5.34383,-2.764172 -7.80979,-4.542296 -2.00072,-1.46619 -3.89446,-3.097397 -5.98161,-4.427168 -1.9096,-0.95749 -3.91385,-1.667602 -5.85572,-2.546851 0,0 -24.48934,29.154785 -24.48934,29.154785 z" />
      <path
         style="fill:#55aa5c;fill-opacity:1;stroke:#55aa5c;stroke-width:4.28021;stroke-linejoin:round;stroke-dasharray:none;stroke-opacity:1"
         id="path1971"
         d="m 80.872232,228.53957 c 0.14135,0.24307 0.21189,0.54746 0.42405,0.72921 1.8405,1.57683 5.85741,-1.61314 7.28454,-2.62467 11.39047,-9.56586 22.149178,-20.08772 31.357578,-31.86306 2.5907,-3.3053 5.44316,-6.38379 8.24766,-9.49837 0.48208,-0.53588 0.96171,-1.07404 1.44626,-1.60759 0.50659,-0.5578 1.01209,-1.11671 1.5271,-1.66642 0.54606,-0.58289 2.21484,-2.30126 1.65592,-1.7312 -36.302098,37.02656 -24.5301,24.67324 -16.46402,17.01313 4.65323,-4.04051 9.16065,-8.24574 13.68222,-12.43745 5.82025,-5.32058 12.31061,-9.79863 18.83947,-14.15092 5.81778,-3.83244 11.89525,-7.21393 18.17477,-10.18337 5.27657,-2.4662 10.78223,-4.33075 16.41931,-5.70996 5.01927,-1.12946 10.12754,-1.06129 15.17701,-0.25389 4.28751,0.9348 8.32251,2.79568 12.28484,4.66635 3.37042,1.58039 6.39478,3.68696 8.9957,6.37454 2.04958,2.31574 3.25116,5.10215 4.07975,8.06458 0.74062,3.06553 0.58178,6.21778 0.2684,9.32706 -0.43444,3.24534 -1.26683,6.41764 -2.21788,9.54051 -0.81822,2.69393 -1.79355,5.32983 -2.80833,7.95145 -0.93858,2.24946 -1.87001,4.50186 -2.80265,6.75391 -0.87857,2.30056 -1.90934,4.53163 -2.9515,6.7582 -1.06067,2.2534 -2.31516,4.40107 -3.53653,6.5654 -1.04041,1.90382 -2.12475,3.77496 -3.46821,5.47275 -1.40918,1.50683 -2.92112,2.90582 -4.33467,4.40904 -1.43241,1.5041 -2.72722,3.13489 -4.09559,4.69846 -1.39916,1.62578 -2.8996,3.186 -4.05584,5.00728 -1.52965,1.88307 -2.73871,3.98567 -4.04046,6.02815 -1.00516,1.50154 -1.82875,3.10489 -2.61717,4.73015 -0.61364,1.17403 -1.31471,2.28382 -1.88546,3.4812 -0.25451,0.99569 -0.86572,1.79258 -1.42516,2.62291 -0.40588,0.47683 -0.52509,1.07509 -0.71355,1.65225 -0.011,0.0736 -0.004,0.15234 -0.0329,0.22069 -0.0695,0.16485 -0.28589,0.20936 -0.38945,0.32452 -0.24198,0.26908 -0.45573,0.70164 -0.63609,1.01708 -0.27466,0.4483 -0.51859,0.91879 -0.56348,1.45353 -0.20461,0.32979 -0.0571,0.67199 -0.0719,1.02679 -0.0428,0.30458 -0.21914,0.61204 -0.45371,0.80016 -0.21752,0.19265 0.33306,0.57424 -0.0815,0.70324 0.056,0.24968 -0.20068,0.43788 -0.30779,0.69928 0.61128,0.49909 0.12727,0.26211 -0.18966,0.0469 0.45194,0.6666 -0.0689,-0.0778 -0.0276,0.50547 0.30549,0.45636 -0.12863,0.61266 0.0896,0.6407 4.69864,-3.17077 19.08111,-18.21778 10.70758,-9.13531 0,0 -0.52247,0.56694 -0.52247,0.56694 v 0 c -0.54352,1.05052 -2.56823,3.85578 -1.63058,3.15153 4.97353,-3.73528 9.12402,-8.50226 13.78837,-12.62521 0.0875,-0.12169 0.19392,-0.23133 0.26246,-0.36506 0.0223,-0.0433 0.0327,-0.48393 0.0696,-0.5048 0.0782,-0.0439 0.16439,0.16368 0.25196,0.0929 0.0525,-0.026 0.13228,0.002 0.16957,-0.0437 0.15396,-0.18878 -0.3255,-0.79955 0.22984,-0.25789 -0.38871,-0.88662 -0.39468,-0.23682 0.0974,-0.65593 0.15745,-0.26483 0.12014,-0.66381 0.33224,-0.82512 -0.0865,-0.45235 0.44718,-0.41283 0.56419,-0.80227 0.0764,-0.5233 0.3018,-1.02219 0.4835,-1.51504 0.17307,-0.36202 0.62218,-0.48912 0.72647,-0.92599 0.28838,-0.39939 0.65089,-0.72988 0.92092,-1.14499 0.61188,-0.7741 1.06593,-1.58877 1.5203,-2.45494 0.37462,-0.59714 0.91847,-1.06522 1.2339,-1.70966 0.54058,-0.94616 0.88968,-2.00165 1.6192,-2.82822 0.94906,-1.37485 1.83937,-2.77931 2.66337,-4.23717 0.99985,-1.61109 2.07007,-3.17823 3.12506,-4.7519 1.5126,-2.16753 3.14368,-4.24904 4.86962,-6.24401 1.68519,-1.80105 3.30093,-3.66756 4.94945,-5.50348 1.42084,-1.60332 2.85919,-3.18955 4.37069,-4.70514 1.56292,-1.59189 3.14249,-3.1985 4.29372,-5.13931 1.12506,-1.87918 2.13525,-3.82661 3.20156,-5.74066 1.16265,-2.18657 2.27522,-4.39697 3.25357,-6.67758 1.02761,-2.27461 1.96166,-4.58822 2.86519,-6.91669 0.87473,-2.23002 1.7915,-4.44465 2.56027,-6.71608 0.9037,-2.62084 1.70091,-5.28138 2.33118,-7.98526 0.7635,-3.28506 1.52925,-6.58678 1.55886,-9.98457 0.0371,-3.49406 0.063,-7.05775 -1.17631,-10.37304 -1.28027,-3.35246 -3.03617,-6.41175 -5.65208,-8.88135 -2.98981,-2.86752 -6.31013,-5.339 -10.09328,-7.02003 -4.45238,-1.95859 -9.06488,-3.45244 -13.85911,-4.26755 -1.84958,-0.29177 -3.45081,-0.58284 -5.32234,-0.72144 -3.71682,-0.27523 -7.46357,0.002 -11.13596,0.60247 -6.1149,1.19155 -11.71536,3.08221 -17.36755,5.76382 -6.65211,3.06288 -13.05308,6.60095 -19.14439,10.71599 -6.55607,4.21085 -13.00094,8.60168 -19.02725,13.58334 -4.60647,4.04409 -8.94054,8.40026 -13.64959,12.32605 -11.5379,10.39977 -22.23054,21.75761 -32.65046,33.31444 -2.769508,3.14819 -5.498988,6.33194 -8.154568,9.58111 -7.31601,8.43318 -18.9127,19.50096 18.083888,-18.09528 0.51972,-0.52816 -1.03332,1.06275 -1.56258,1.58097 -0.75598,0.74015 -2.62348,2.47087 -3.37743,3.17333 -3.67859,3.32415 -7.492568,6.4747 -11.538118,9.32755 0,0 -15.02312,18.41606 -15.02312,18.41606 z" />
      <path
         style="fill:#55aa5c;fill-opacity:1;stroke:#55aa5c;stroke-width:4.52104;stroke-linejoin:round;stroke-dasharray:none;stroke-opacity:1"
         id="path1973"
         d="m 52.891662,125.80726 c -0.66415,2.6749 0.51854,4.74652 2.125969,6.67115 1.703863,1.5301 3.75824,2.41527 5.828275,3.20374 2.245704,0.66568 4.267381,1.74317 6.104094,3.26731 1.652668,1.50688 2.636811,3.54437 3.528809,5.61444 0.674901,1.43668 1.333469,2.88188 1.98871,4.32894 0.410887,0.90608 0.699773,1.87776 1.224653,2.71758 0.68646,0.96882 1.44304,1.87861 2.10396,2.86856 0.70806,1.02379 1.17117,2.18903 1.59516,3.3695 0.0377,0.11968 0.31525,1.60409 0.92922,1.25712 1.57513,-0.89014 2.94288,-2.14987 4.38213,-3.27311 11.80378,-9.21193 2.21645,-2.03237 9.25552,-7.26214 0,0 0.60956,-0.53207 0.60956,-0.53207 v 0 c 2.15011,-2.37043 8.326538,-9.1663 9.438778,-10.48648 1.72386,-2.04616 4.40595,-3.80259 4.21045,-6.76757 -0.0231,-0.35039 -0.21364,-0.66426 -0.32047,-0.99639 -0.54791,-1.52603 -1.2375,-2.96253 -2.20185,-4.24178 -0.61168,-0.89182 -1.21349,-1.80115 -1.69651,-2.78119 -0.34926,-0.81033 -0.84711,-1.54184 -1.21659,-2.34176 -0.7159,-1.42065 -1.412968,-2.85216 -2.166888,-4.25054 -1.34643,-2.39431 -2.95771,-4.60073 -4.87886,-6.50361 -2.07346,-1.85922 -4.28265,-3.59478 -6.88997,-4.48833 -1.61798,-0.55998 -3.28868,-1.07207 -4.66945,-2.17886 -1.23735,-0.762 -2.20585,-2.10164 -3.69853,-2.19244 0,0 -25.58617,24.99793 -25.58617,24.99793 z" />
      <path
         style="fill:#55aa5c;fill-opacity:1;stroke:#55aa5c;stroke-width:4.40278;stroke-linejoin:round;stroke-dasharray:none;stroke-opacity:1"
         id="path1975"
         d="m 46.791412,193.00521 c 2.033368,0.98195 3.80039,2.39664 5.518488,3.84483 1.690153,1.38745 3.726992,2.2181 5.572584,3.35947 1.606491,1.04844 3.288058,1.87401 4.762283,3.11917 1.543339,1.62832 2.986985,3.35201 4.427623,5.07243 1.36303,1.62731 2.434819,3.46244 3.516028,5.28248 1.26442,2.09607 2.084773,4.41901 2.735634,6.76992 0.61134,1.9403 0.92527,3.92533 0.93973,5.95567 0.0497,0.91382 3.9e-4,1.82845 -0.1703,2.72712 0.17722,0.8977 -0.0347,0.0156 1.73001,-1.44881 1.83788,-1.52502 3.72595,-2.98792 5.59231,-4.47759 5.90097,-4.71002 3.53755,-3.63784 6.2915,-4.82799 0,0 0.612,-0.50287 0.612,-0.50287 v 0 c 4.04876,-4.79745 9.79507,-7.87889 13.843938,-12.69277 0.0507,-0.0602 0.0165,-0.15683 0.0246,-0.23524 -0.21296,-0.90621 -0.36927,-1.8241 -0.57115,-2.73276 -0.60023,-1.99015 -1.18052,-3.98741 -1.852218,-5.95473 -0.94526,-2.52188 -1.9705,-5.01374 -3.14401,-7.43805 -1.15453,-2.00789 -2.46309,-3.92878 -3.9582,-5.69809 -1.53587,-1.83673 -3.11207,-3.6476 -4.80884,-5.33651 -1.50448,-1.50412 -3.02892,-3.04636 -4.93942,-4.02366 -1.91503,-1.10301 -3.81752,-2.23308 -5.89288,-3.01724 -2.14662,-0.87153 -4.304684,-1.77843 -6.254557,-3.04603 0,0 -23.975116,25.30125 -23.975116,25.30125 z" />
      <path
         style="fill:#55aa5c;fill-opacity:1;stroke:#55aa5c;stroke-width:2.76224;stroke-linejoin:round;stroke-dasharray:none;stroke-opacity:1"
         id="path1977"
         d="m 136.72744,47.258253 c 0.19119,3.354663 0.17207,6.758918 0.17378,10.137315 -0.0164,4.894721 -0.10483,9.785889 -0.17373,14.677556 -0.0481,4.213949 -0.0144,8.429461 -0.0219,12.644345 -0.0224,4.551512 0.0692,9.097561 0.15274,13.643146 0.0903,4.706785 0.13752,9.416045 0.10187,14.126965 -0.0548,5.01911 -0.13173,10.0366 -0.22058,15.05298 -0.11315,5.69742 -0.2,11.3966 -0.25493,17.09865 -0.072,6.62336 -0.0186,13.24811 0.0494,19.87006 0.10006,7.34635 0.27672,14.68539 0.47429,22.02043 0.17415,5.43154 0.21727,10.87046 0.15324,16.31283 -0.0371,3.10023 -0.0959,6.19772 -0.20263,9.28918 -0.10574,1.9584 -0.17106,3.92066 -0.20133,5.89287 -0.0397,2.89986 -0.008,5.79964 0.0602,8.6954 0.10008,3.11879 0.14747,6.2447 0.24445,9.36384 -0.0437,0.65493 -0.12477,1.3021 -0.13108,1.9648 -8.6e-4,0.0902 0.20601,3.39423 0.20756,3.41988 0.12227,2.02525 0.2137,4.05751 0.32528,6.08605 0.20178,3.81872 0.38039,7.64647 0.45125,11.49177 0.0626,2.78796 -0.14011,5.54143 -0.17324,8.32356 -0.009,2.3934 -0.0323,4.77017 -0.0802,7.16267 0.0213,2.11763 -0.0452,4.22902 -0.0691,6.34466 0.0523,1.65117 0.032,3.30856 0.0711,4.96091 0.10187,1.81177 0.1122,3.61231 0.0743,5.4364 0.0352,1.59491 0.0423,3.18553 0.15012,4.76462 0.0328,0.1733 0.0809,1.58196 0.13431,1.64728 0.0539,0.0659 0.1213,-0.0217 0.18196,-0.0326 0,0 0.2519,-0.51679 0.2519,-0.51679 v 0 c 0.049,-0.21641 0.11515,-0.41593 0.1469,-0.64923 0.0723,-0.53118 -0.16321,-1.16969 -0.0948,-1.70919 -0.0136,-1.63554 -0.0851,-3.26394 -0.0768,-4.90151 -0.11189,-1.75051 -0.1854,-3.48641 -0.16191,-5.25862 -0.0152,-1.7377 -0.0144,-3.47002 0.0576,-5.20331 0.01,-2.20453 0.0377,-4.40381 0.19695,-6.5827 0.0898,-2.48832 0.063,-4.98758 0.23713,-7.45869 0.0952,-1.37689 0.20937,-2.80225 0.22254,-4.20129 0.013,-1.38253 -0.0696,-2.7829 -0.056,-4.16736 -0.0754,-3.84705 -0.25353,-7.67676 -0.46904,-11.49399 -0.12496,-1.96967 -0.29308,-3.91431 -0.42707,-5.88024 -0.0402,-0.59048 -0.0781,-1.18187 -0.11342,-1.77408 -0.0325,-0.54533 -0.022,-1.11124 -0.09,-1.63837 -0.0537,-0.41638 -0.1793,-0.76215 -0.26894,-1.14322 -0.1047,-3.11382 -0.14648,-6.23663 -0.24889,-9.35105 -0.0728,-2.91143 -0.0743,-5.82791 -0.027,-8.7423 0.0341,-1.97326 0.11142,-3.93464 0.20761,-5.89647 0.10328,-3.06908 0.12714,-6.14751 0.16388,-9.22397 0.0482,-5.41834 -0.0208,-10.82931 -0.20075,-16.23407 -0.19323,-7.32506 -0.39879,-14.6505 -0.48701,-21.98772 -0.0601,-6.61335 -0.11236,-13.22881 -0.0589,-19.84361 0.0429,-5.67646 0.1238,-11.34976 0.21805,-17.02277 0.0661,-4.95822 0.11233,-9.91742 0.13093,-14.87797 0.0182,-4.70766 -0.0192,-9.41348 -0.11021,-14.11684 -0.0798,-4.5248 -0.15821,-9.048791 -0.18387,-13.577541 -0.0599,-4.165632 -0.0968,-8.334614 -0.0473,-12.502182 0.0634,-4.904208 0.16121,-9.806147 0.19024,-14.712579 0.0135,-3.389763 0.0471,-6.802633 -0.1677,-10.165701 0,0 -0.21122,0.437796 -0.21122,0.437796 z" />
      <path
         style="fill:#55aa5c;fill-opacity:1;stroke:#55aa5c;stroke-width:4.2;stroke-linejoin:round;stroke-dasharray:none;stroke-opacity:1"
         id="path1983"
         d="m 154.61167,202.21542 c 2.64746,1.73617 4.64997,4.24849 6.59196,6.70681 2.48701,3.13036 4.75431,6.41878 6.93892,9.76421 1.36245,2.24677 3.04582,4.22213 4.94786,6.02071 1.62559,1.55917 3.34586,3.01424 4.99578,4.54709 1.01676,0.92177 1.94843,1.93364 2.77712,3.02716 0.16463,0.32061 0.37936,0.59779 0.64574,0.84057 0.15334,0.11867 0.30299,0.23883 0.43629,0.38001 0.0253,-0.0273 0.0463,0.11129 0.0726,0.0849 7.03284,-7.05817 5.55713,-5.613 13.64538,-14.06234 0,0 -0.58418,0.47972 -0.58418,0.47972 v 0 c 8.44151,-8.16769 6.39281,-6.0539 13.46923,-13.30992 0.0289,-0.0297 -0.13286,-0.0392 -0.10366,-0.0686 -0.15872,-0.11388 -0.30369,-0.24262 -0.44523,-0.37709 -0.17768,-0.0755 -0.40102,-0.31542 -0.56929,-0.45723 -1.12438,-0.91782 -2.20467,-1.88876 -3.29987,-2.84076 -1.66142,-1.46747 -3.34838,-2.90764 -4.95299,-4.43785 -1.69168,-1.65013 -3.33853,-3.34791 -4.77926,-5.22679 -2.48321,-3.18666 -4.83132,-6.46822 -7.10627,-9.80602 -2.04613,-2.67991 -4.30764,-5.17168 -6.4537,-7.76829 0,0 -26.22641,26.50366 -26.22641,26.50366 z" />
    </g>
    <g
       id="g1751"
       inkscape:label="G"
       style="fill:#55aa5c;fill-opacity:1;stroke:#55aa5c;stroke-opacity:1">
      <path
         style="fill:#55aa5c;fill-opacity:1;stroke:#55aa5c;stroke-width:5.37206;stroke-linejoin:round;stroke-dasharray:none;stroke-opacity:1"
         id="path5498"
         d="m 274.01271,221.31043 c -0.20674,-0.0132 -0.41943,-0.0884 -0.62023,-0.0389 -0.88179,0.21749 -2.31079,1.08547 -2.97478,1.47162 -2.82894,1.64517 -5.47666,3.51252 -8.14297,5.39148 -15.92753,11.68367 -29.41143,26.11982 -43.20722,40.05522 -7.40516,7.64446 -13.3524,16.46732 -19.07278,25.32779 -5.41916,8.47864 -9.79297,17.51231 -13.45207,26.81882 -2.48476,6.94635 -3.52255,14.25358 -4.91105,21.45194 -1.69572,7.74323 -2.85044,15.57829 -3.91797,23.42151 -1.16278,8.42949 -1.50194,16.99872 -0.63037,25.4737 0.19247,1.87143 0.51031,3.72871 0.76547,5.59308 1.33012,7.49241 3.11997,14.98345 5.92164,22.10322 1.64985,4.19274 3.01056,6.66099 5.04187,10.69143 3.91391,7.1001 8.67412,13.71971 14.52822,19.44571 3.66559,3.58539 5.02231,4.51237 9.00251,7.69839 7.57757,5.36509 15.88065,9.94365 24.92797,12.52537 1.68179,0.47994 3.40556,0.80896 5.10834,1.21346 9.80404,1.69404 19.70667,0.42172 29.36241,-1.48073 6.96079,-1.44556 13.51396,-4.14335 19.84203,-7.23692 5.85426,-2.9246 11.39088,-6.39141 16.92819,-9.83464 4.85766,-2.9346 9.48646,-6.18818 13.91084,-9.70328 3.17364,-2.65477 6.28614,-5.37531 9.47923,-8.00846 2.24521,-1.82738 4.44935,-3.7016 6.68898,-5.53528 15.82398,-13.2734 29.52919,-28.31186 44.47302,-42.85117 0.69059,-1.04387 1.46324,-2.02306 2.35604,-2.91046 -0.25908,0.26793 1.10682,-0.78872 0.86329,-0.55216 -13.39992,13.01758 -54.18561,51.48502 -40.28759,38.96769 0.10262,-0.0923 0.2231,-0.16324 0.33466,-0.24486 13.73724,-13.31196 27.47447,-26.62393 41.2117,-39.93589 -14.64314,9.20901 31.83275,-20.10072 -34.34007,31.18873 -1.88456,1.46067 11.07192,-14.03955 13.2058,-16.60796 0,0 0.69408,-0.92326 0.69408,-0.92326 v 0 c 0.54663,-0.85147 1.05414,-1.72775 1.63985,-2.55445 2.51549,-3.55031 11.11874,-13.27904 7.66151,-10.57341 -12.29426,9.62155 -22.97559,21.03251 -34.4634,31.54877 -0.57644,0.45058 -1.1529,0.90118 -1.72933,1.35179 13.54387,-13.11915 27.07757,-26.24819 40.63161,-39.35749 0.20516,-0.1984 -0.42042,0.38683 -0.62576,0.58506 -13.75925,13.28719 -27.51506,26.57778 -41.23709,39.90112 -0.14265,0.13849 -0.4673,0.73125 -0.55644,0.88602 -0.7075,0.94143 -1.45352,1.86401 -2.3964,2.59808 68.80756,-66.83156 51.34837,-49.60046 36.79041,-35.71603 -2.21852,2.08848 -4.56781,4.04241 -6.87776,6.03435 -3.32714,2.80617 -6.72039,5.5409 -9.89612,8.5113 -4.32424,3.85654 -8.83433,7.52206 -13.72306,10.69712 -5.37272,3.47905 -10.84758,6.80544 -16.41481,9.985 -6.23256,3.40577 -12.57271,6.70151 -19.40463,8.8494 -9.04948,2.56863 -18.4112,4.34613 -27.88509,3.45967 -1.60085,-0.25817 -3.21812,-0.4342 -4.80251,-0.77456 -8.64462,-1.85703 -16.5662,-5.97636 -23.76457,-10.86236 -3.78939,-2.84471 -5.15632,-3.69097 -8.58111,-6.99458 -5.51483,-5.31981 -9.94608,-11.57296 -13.38717,-18.32174 -0.80661,-1.70844 -1.67161,-3.39203 -2.41989,-5.12523 -3.65425,-8.46432 -5.99175,-17.42602 -7.17588,-26.51935 -0.41885,-4.84799 -0.62428,-5.88703 -0.58609,-10.73938 0.0526,-6.68228 0.97908,-13.31082 2.08686,-19.89422 1.3843,-7.97101 3.02166,-15.89078 4.72357,-23.80323 1.34683,-6.82565 2.60951,-13.67349 4.63261,-20.3514 1.90337,-7.17328 3.91922,-14.33757 7.42491,-20.96636 3.50366,-6.78487 7.07822,-13.58093 12.34262,-19.28268 9.25412,-10.24999 1.84384,-1.90852 -18.90527,17.72551 -1.23258,1.16637 2.36831,-2.42546 3.57466,-3.61734 2.50661,-2.4765 4.47516,-4.3366 7.12734,-6.64741 1.15408,-1.00551 2.34329,-1.97255 3.51489,-2.95881 5.74328,-4.63466 11.61221,-9.13732 17.08113,-14.08008 0,0 12.51122,-15.96837 12.51122,-15.96837 z" />
      <path
         style="fill:#55aa5c;fill-opacity:1;stroke:#55aa5c;stroke-width:4.99126;stroke-linejoin:round;stroke-dasharray:none;stroke-opacity:1"
         id="path5500"
         d="m 258.26667,231.86437 c -0.65958,2.77613 -1.66203,5.4632 -2.41553,8.21601 -0.60962,2.97475 -1.29408,5.93819 -1.83847,8.92351 -0.66632,3.24862 -1.51622,6.46874 -2.0441,9.73906 -1.01371,4.00289 -2.26745,7.9508 -3.62108,11.87067 -0.70394,2.5072 -1.81595,4.92413 -2.35979,7.47052 -0.0616,0.28853 -0.54304,3.86164 -0.56714,4.0384 -0.72077,4.49665 -1.34071,9.00489 -1.91816,13.5185 -0.45919,3.46851 -0.82443,6.94779 -1.34277,10.40954 -0.30619,3.48879 -0.60826,6.98007 -0.88626,10.47169 -0.24632,3.74706 -0.65987,7.48222 -0.85746,11.2319 -0.24959,3.20545 -0.33641,6.41797 -0.55196,9.62493 -0.17783,3.2266 -0.23106,6.45746 -0.53052,9.67731 -0.41515,4.43092 -1.03913,8.84314 -1.65763,13.25353 -0.51657,2.93145 -0.79109,5.90714 -1.46479,8.8143 -0.0753,0.81552 -0.67786,1.36106 -1.07367,2.03651 -1.158,1.97624 0.68728,-0.87538 -0.69131,1.20983 -0.94739,1.89612 -1.83435,3.80303 -2.90798,5.64381 -0.32663,0.49611 -0.67429,0.9812 -0.97988,1.48834 -2.71298,4.50211 1.34123,-1.84471 -1.98813,3.43771 -1.54582,2.45264 -3.23075,4.82707 -4.91929,7.19865 -0.40137,0.73539 -1.47252,1.42199 -1.20412,2.20619 0.28534,0.83364 4.84095,-0.53633 4.7068,-0.0373 -0.45138,1.67896 -2.45978,2.63 -3.68967,3.94499 0,0 0.90779,-0.61184 0.90779,-0.61184 v 0 c 1.22977,-1.31513 2.33206,-2.73921 3.68933,-3.94542 8.52305,-7.57439 18.10886,-14.15356 26.09387,-22.24092 6.21537,-6.32313 12.30643,-12.77092 17.93652,-19.53719 2.23988,-2.8479 4.57144,-5.69547 6.10964,-8.92864 0.49473,-1.45724 0.88545,-2.85946 0.6933,-4.40583 -0.0155,-2.70484 0.298,-5.40141 0.53973,-8.0941 0.46043,-4.50431 1.1244,-8.98497 1.72176,-13.47513 0.30587,-3.34096 0.54581,-6.68583 0.68196,-10.03646 0.11254,-3.15838 0.25387,-6.31554 0.39472,-9.47297 0.22436,-3.70762 0.51466,-7.40981 0.89221,-11.10728 0.29846,-3.53125 0.73721,-7.04457 1.25797,-10.55373 0.27664,-3.34292 0.5184,-6.68872 0.88085,-10.02516 0.51286,-4.44777 1.12075,-8.88729 1.98947,-13.29041 0.0444,-0.21918 0.79969,-3.90615 0.84274,-4.26719 0.23389,-1.96131 -0.0877,-3.95669 -0.4435,-5.88524 -0.33887,-1.01532 -0.45593,-1.49206 -0.94232,-2.45508 -1.8043,-3.57234 0.56826,1.37209 -1.37151,-2.15466 -0.20692,-0.37619 -0.3297,-0.78626 -0.49455,-1.1794 -0.19185,-0.34329 -0.38372,-0.68657 -0.57558,-1.02987 -0.52924,-2.19803 -1.2973,-4.35171 -1.55386,-6.60187 -0.1294,-2.37564 -0.35685,-4.75309 -0.12225,-7.13154 -0.008,-2.08353 -0.32109,-4.16632 0.35751,-6.2046 0,0 -24.68286,18.24592 -24.68286,18.24592 z" />
      <path
         style="fill:#55aa5c;fill-opacity:1;stroke:#55aa5c;stroke-width:5.3636;stroke-linejoin:round;stroke-dasharray:none;stroke-opacity:1"
         id="path5504"
         d="m 307.64231,216.68058 c -0.8553,2.80526 -1.26047,5.72745 -1.5596,8.6498 -0.36178,4.04561 -0.21934,8.1177 -0.23176,12.17573 -0.0867,5.24913 -0.44349,10.48772 -0.7037,15.72911 -0.26245,5.47937 -0.32484,10.96604 -0.36322,16.45135 -0.0102,5.29374 0.0306,10.58713 0.019,15.88097 -0.017,5.03582 -0.24596,10.06669 -0.3969,15.09907 -0.14568,5.01567 -0.17671,10.03384 -0.19605,15.05151 -0.013,6.20925 -0.33446,12.41036 -0.79938,18.59779 -0.38459,5.46104 -1.11837,10.87976 -1.91149,16.28694 -0.68175,4.43961 -1.21323,8.89993 -1.66059,13.3724 -0.37575,4.3743 -0.78591,8.74572 -1.11784,13.12412 -0.25013,4.29108 -0.61095,8.57173 -0.98836,12.85163 -0.38571,4.15507 -0.65567,8.32037 -0.7601,12.49416 0.0443,3.79528 0.031,7.58491 -0.13023,11.37683 -0.17183,3.5607 -0.44203,7.11439 -0.7341,10.66576 -0.19739,2.39629 -0.36703,4.79441 -0.46525,7.19773 -0.0568,1.46406 -0.0623,2.92947 -0.0645,4.39454 -0.021,1.40308 -0.0781,2.80622 -0.19705,4.20396 -0.0455,-0.27113 -0.0909,-0.54225 -0.13647,-0.81337 0,0 -6e-5,7e-5 -6e-5,7e-5 v 0 c 0.0463,0.27042 0.0926,0.54083 0.13883,0.81124 0.12262,-1.39779 0.17575,-2.80175 0.19826,-4.2051 0.002,-1.46499 0.008,-2.93033 0.0642,-4.39433 0.0982,-2.40329 0.26783,-4.80138 0.46521,-7.19764 0.29207,-3.55139 0.56227,-7.10507 0.73408,-10.66577 0.16133,-3.79194 0.17456,-7.58157 0.13024,-11.37686 0.10442,-4.17377 0.37438,-8.33905 0.76007,-12.49409 0.37749,-4.2799 0.73823,-8.56056 0.98837,-12.85164 0.33192,-4.37836 0.74201,-8.74978 1.11776,-13.12403 0.44736,-4.47246 0.97887,-8.93278 1.66057,-13.37238 0.79313,-5.40717 1.52688,-10.82589 1.91144,-16.28691 0.46484,-6.18745 0.7863,-12.38856 0.79932,-18.5978 0.0193,-5.01764 0.0502,-10.03577 0.19597,-15.05142 0.15093,-5.03233 0.3798,-10.06315 0.39675,-15.09894 0.0113,-5.29384 -0.0283,-10.58721 -0.0191,-15.88093 0.0384,-5.4853 0.10081,-10.97194 0.36316,-16.45129 0.26015,-5.24138 0.61679,-10.47994 0.70361,-15.72904 0.0124,-4.05799 -0.13016,-8.13004 0.23168,-12.17561 0.29915,-2.92231 0.70431,-5.84444 1.55958,-8.64969 0,0 -0.002,0.002 -0.002,0.002 z" />
      <path
         style="fill:#55aa5c;fill-opacity:1;stroke:#55aa5c;stroke-width:4.98855;stroke-linejoin:round;stroke-dasharray:none;stroke-opacity:1"
         id="path5510"
         d="m 302.70833,236.84243 c 0.44659,-0.19368 0.91508,-0.3498 1.3398,-0.58104 1.28527,-0.69981 3.30964,-2.1048 4.45089,-2.89463 2.14132,-1.48193 4.25007,-3.00179 6.39655,-4.47766 1.83344,-1.06552 3.23954,-2.62179 4.98211,-3.78688 0.94752,-0.82886 -1.63804,-1.72951 -2.15855,-2.15928 -0.33895,-0.27983 -0.59851,-0.64055 -0.96622,-0.88812 -0.055,-0.0369 -0.0399,0.15502 -0.0248,0.70539 0.34495,2.70767 1.38223,3.90157 3.50437,5.75573 3.71846,3.70252 8.28185,6.49555 12.54273,9.62431 4.064,3.14349 8.0576,6.47023 11.10219,10.50064 1.78097,2.35761 2.07361,3.19742 3.35393,5.71764 2.01281,4.83302 1.47719,8.71678 0.0211,13.5416 -1.65616,4.98415 -4.29267,9.60696 -7.10654,14.11114 -3.15524,4.99804 -7.08922,9.51028 -11.09259,13.94955 -3.69788,4.1544 -7.72153,8.04708 -11.87349,11.82017 48.6234,-42.7591 25.13159,-23.00494 13.77243,-13.51874 -12.61116,9.83946 -23.90229,20.93836 -35.61996,31.65648 -2.46305,2.55829 -4.97541,5.06866 -7.60268,7.48653 -2.04638,1.62529 -3.44568,3.72769 -5.09505,5.65198 -0.87279,0.90686 -1.80854,1.76071 -2.74536,2.61152 -1.32744,1.20554 -0.88107,0.73441 1.56368,-0.61594 10.99206,-8.12061 12.9299,-10.24134 7.36993,-4.82741 0,0 -0.67543,0.82481 -0.67543,0.82481 v 0 c 0.0171,5.60478 -0.21291,0.93761 12.13065,-8.55996 2.74006,-1.995 5.16307,-3.55922 6.97456,-6.25375 1.69253,-2.07589 3.87238,-3.76784 5.77642,-5.67437 3.11544,-2.92029 6.24517,-5.82875 9.43512,-8.68111 -7.30766,6.68241 -14.62211,13.3586 -21.92298,20.04725 -0.54741,0.50152 1.10092,-0.99762 1.66255,-1.48579 2.28206,-1.9835 4.67148,-3.8741 7.2118,-5.57637 14.7262,-9.66743 26.53461,-22.72202 39.42568,-34.13267 4.43033,-4.0857 8.67653,-8.3309 12.6416,-12.80215 4.0156,-4.60078 7.82955,-9.36093 10.80385,-14.60197 2.75005,-4.86406 5.46272,-9.83193 6.72404,-15.22391 0.32,-1.95157 0.54383,-2.75612 0.50152,-4.73963 -0.0768,-3.59451 -1.26506,-7.01018 -3.22349,-10.10939 -0.64074,-0.93996 -1.23703,-1.90655 -1.9222,-2.8199 -3.90888,-5.21081 -8.78737,-9.75667 -13.69696,-14.16823 -2.33392,-2.0146 -4.62619,-4.09219 -7.1944,-5.86252 -0.67403,-0.46462 -1.38676,-0.88025 -2.08014,-1.32037 -0.59011,-0.36021 -1.20304,-0.69088 -1.77031,-1.08057 -0.45299,-0.31121 -0.85633,-0.67873 -1.28449,-1.01809 -0.77209,-0.89322 -2.02055,-2.05348 -1.75972,-3.30018 0.0176,-0.0778 0.12491,-0.50282 0.086,-0.56606 -0.47331,-0.77031 -3.13158,-3.32095 -3.48417,-3.17233 -0.0955,0.0402 -0.13013,0.15104 -0.19519,0.22655 -1.65612,1.67419 -3.67732,3.0094 -5.38536,4.63781 -3.78547,3.16114 -7.82406,6.0031 -11.97912,8.74315 0,0 -22.91436,27.28677 -22.91436,27.28677 z" />
      <path
         style="fill:#55aa5c;fill-opacity:1;stroke:#55aa5c;stroke-width:6.06935;stroke-linejoin:round;stroke-dasharray:none;stroke-opacity:1"
         id="path5512"
         d="m 300.92066,350.93752 c 4.58679,-1.17517 9.27104,-1.68533 13.90999,-2.53262 4.80989,-0.88677 9.65865,-1.42855 14.43985,-2.49824 3.98589,-1.19895 8.06714,-1.78629 12.16118,-2.28187 4.4252,-1.08216 8.85631,-2.12073 13.31463,-3.02365 1.70297,-0.55276 3.55562,-0.53658 5.24046,-1.16957 0.97173,-0.4744 0.50424,-0.28694 1.39421,-0.5869 1.03318,-0.0885 1.69872,-0.86389 2.54028,-1.41227 0.5,-0.32578 1.3253,-0.72713 1.84772,-0.99279 0.96277,-0.55734 2.04166,-0.79676 3.0408,-1.24049 1.96222,-1.51424 -5.66997,-9.88572 -3.75501,-5.03054 0.36967,2.3879 0.24047,4.86424 0.16501,7.27823 -0.0549,3.55784 -0.0102,7.1165 -0.008,10.67481 0.2257,2.77175 -0.14694,5.51695 -0.31106,8.27539 -0.16175,3.04468 -0.46425,6.0702 -0.57587,9.11992 -0.20561,2.76922 -0.15614,5.54372 -0.18345,8.31752 -0.0587,2.48963 -0.21214,4.98208 -0.10916,7.472 0.17667,2.19215 0.19608,4.38545 0.21385,6.58334 -0.0113,1.78438 0.20438,3.56715 0.18447,5.34816 -0.16539,0.83624 0.20947,1.53262 -0.068,2.29773 0.002,0.56654 0.0937,1.12097 0.31038,1.6349 0.38986,0.44154 0.58137,0.94305 0.58461,1.56121 0.18279,0.74251 0.15771,1.43024 0.6095,2.03854 0.1592,0.48824 0.38848,1.00266 0.50583,1.56232 0.0901,1.50906 0.27972,0.88002 1.7496,-0.538 4.17794,-4.03037 8.33017,-8.09316 12.49523,-12.13972 1.40235,-1.3594 2.80474,-2.71882 4.2071,-4.07817 0,0 0.95196,-0.89027 0.95196,-0.89027 v 0 c 1.4058,-1.44577 2.81158,-2.89153 4.21737,-4.33725 4.66391,-4.73962 9.84331,-8.95864 13.86696,-14.36716 0.15032,-0.20207 -0.20668,-0.63691 -0.2072,-0.81527 -0.13677,-0.4651 0.0102,-0.49886 0.0102,-0.50088 0.0126,-0.28828 -0.29015,-0.49207 -0.10081,-0.78586 0.52039,-0.4081 -0.008,-1.45078 0.15154,-2.0519 -0.0988,-0.68312 0.24319,-1.11533 0.45583,-1.76846 0.16552,-0.55786 0.33808,-1.11235 0.4741,-1.67909 -0.0597,-1.1137 0.14993,-2.16911 0.0157,-3.27896 -0.0953,-1.80123 -0.0141,-3.61485 -0.19631,-5.41457 -0.11075,-2.14493 -0.332,-4.28559 -0.25948,-6.43919 0.017,-2.3497 -0.075,-4.69773 -0.14683,-7.04553 -0.008,-2.61942 0.0743,-5.2408 0.10284,-7.85994 0.18767,-2.99483 0.39664,-5.99023 0.66734,-8.9767 0.27911,-2.99621 0.3096,-6.01188 0.46795,-9.01735 0.0387,-3.45587 -0.0778,-6.92274 0.25779,-10.36597 0.14477,-1.32024 0.38822,-5.09088 1.37598,-6.09055 0.11296,-0.11424 0.28773,-0.11717 0.43156,-0.17581 3.31316,1.17977 -2.10326,-4.40396 -3.6822,-5.9422 -1.00498,0.12139 -1.98091,0.54052 -2.99538,0.62203 -0.60984,0.11134 -1.21401,0.26486 -1.82773,0.34654 -0.31726,0.0421 -0.64338,-0.0602 -0.9587,-0.002 -0.0474,0.008 -0.14021,0.18459 -0.16198,0.22195 -0.69138,0.2115 0.64376,-0.17052 -0.63722,0.0218 -1.83509,0.27524 -3.54429,1.35513 -5.37647,1.65997 -4.21895,1.17062 -8.48362,2.10291 -12.78447,2.82823 -4.16354,1.01507 -8.40924,1.40387 -12.58885,2.33139 -5.2309,1.35408 -10.37849,3.07002 -15.63285,4.31904 -5.63035,1.40117 -11.22055,3.05527 -16.65281,5.22161 0,0 -33.14268,45.59409 -33.14268,45.59409 z" />
      <path
         style="fill:#55aa5c;fill-opacity:1;stroke:#55aa5c;stroke-width:4.40925;stroke-linejoin:round;stroke-dasharray:none;stroke-opacity:1"
         id="path5516"
         d="m 303.61367,382.47914 c 3.1525,2.61307 5.25809,6.1796 7.56477,9.46359 2.15768,3.10904 4.51999,6.07793 6.75838,9.1315 0.94965,1.31723 1.83733,2.69579 2.39367,4.21415 0.064,0.22193 -9.6e-4,0.35277 -0.15821,0.49643 -0.12426,-0.002 -0.2163,-0.13063 -0.28447,0.007 0.003,0.0486 -0.0417,0.0757 -0.0593,0.0994 0.9478,1.12316 0.38939,0.37178 0.79978,0.93881 0.11383,0.30912 0.27605,0.60384 0.38202,0.91608 0.0997,0.31575 0.22943,0.58803 0.37693,0.89507 0.1573,0.39474 0.45658,0.74919 0.44798,1.18718 0.18816,0.33022 0.36134,0.6529 0.47988,1.01365 0.0254,0.0852 0.0218,0.18331 0.1735,0.0352 8.43083,-8.22291 1.8851,-2.34086 12.51262,-11.35071 0,0 4.28472,-3.20745 4.28472,-3.20745 v 0 c 8.50776,-7.30791 5.79491,-4.60779 12.58192,-11.63057 0.14125,-0.14615 0.11383,-0.14029 0.0471,-0.25012 -0.13968,-0.24347 -0.29035,-0.48972 -0.30261,-0.75352 -0.24046,-0.43806 -0.46833,-0.87629 -0.61255,-1.35426 -0.11853,-0.31976 -0.21074,-0.62942 -0.38238,-0.92998 -0.17594,-0.34482 -0.29302,-0.71865 -0.47578,-1.06321 -0.0259,-0.51273 -0.64438,-0.62245 0.55475,0.40354 -0.0218,-0.0563 -0.0472,-0.11145 -0.0519,-0.17331 -0.051,-0.24253 -0.1842,-0.44203 -0.32374,-0.64732 -0.25462,-0.42855 -0.50625,-0.85907 -0.84677,-1.23224 -1.12664,-1.33768 -2.20271,-2.7142 -3.35722,-4.03029 -2.41466,-2.80421 -4.87088,-5.58077 -7.12268,-8.50941 -2.5084,-3.49524 -4.73911,-7.15051 -7.05533,-10.76422 0,0 -28.32502,27.09509 -28.32502,27.09509 z" />
    </g>
    <path
       style="fill:#55aa5c;fill-opacity:1;stroke:#55aa5c;stroke-width:2;stroke-linejoin:round;stroke-dasharray:none;stroke-opacity:1"
       id="path1719"
       d="m 250.13916,196.74428 c 3.04679,-2.18382 5.39449,-5.12478 7.47073,-8.20741 2.62791,-3.89445 4.37768,-8.23934 6.00552,-12.61768 1.46156,-3.88224 2.70487,-7.84634 3.26984,-11.96222 0.3281,-3.05907 0.001,-6.11094 -0.82344,-9.06216 -0.73473,-1.91855 -1.66385,-3.34415 -3.91093,-2.99536 -2.41151,1.28506 -2.86295,3.77601 -3.02664,6.23777 -0.0217,2.48674 0.90755,3.98736 2.8706,5.41031 2.03633,1.27005 4.2855,1.27096 6.58108,0.9417 2.57945,-0.49598 4.86585,-1.80327 7.07326,-3.16643 1.09132,-0.67195 2.12487,-1.42995 3.10264,-2.25715 0.0925,0.0871 0.70419,-0.69479 0.15887,-0.40782 -0.21983,0.11568 -0.24948,0.42967 -0.36948,0.64718 -0.89318,1.56399 -1.78458,3.1273 -2.63217,4.71671 -1.00526,1.79216 -1.78284,3.67499 -2.25667,5.6727 -0.37125,1.65961 -0.28009,3.21535 0.50235,4.72471 1.19017,1.83623 3.13008,2.41134 5.19099,2.65248 3.39094,0.1108 6.56363,-1.03329 9.50545,-2.61539 2.28895,-1.54254 4.48996,-3.4462 5.87573,-5.87279 0.6914,-1.21072 0.72334,-1.54613 1.13324,-2.8454 0.57482,-2.51701 0.0888,-4.90229 -1.47608,-6.93577 -0.52219,-0.39274 -0.85605,-0.7909 -1.57799,-0.76103 -2.08526,0.0863 -4.28223,3.19572 -5.389,4.45509 -2.13132,3.14308 -2.78431,6.82206 -2.90925,10.54388 0.0949,1.48503 0.10815,5.11206 2.23411,5.36255 0.31925,0.0376 0.63815,-0.078 0.95722,-0.11704 3.51196,-1.74041 5.40069,-5.41125 6.81138,-8.88413 0.66537,-1.90504 1.36016,-3.84823 1.54559,-5.87228 -0.006,-0.027 -0.0324,-0.46531 -0.26636,-0.23551 -1.61989,1.59136 -1.58575,2.43311 -1.97228,4.54328 -0.44833,3.21788 -0.15799,5.50288 1.44816,8.32824 1.93872,2.66603 3.59583,1.19726 5.5692,-0.59033 2.93118,-2.659 4.42252,-6.25077 6.16134,-9.70257 0.39426,-0.71003 0.65285,-1.22843 1.11787,-1.88061 0.15833,-0.22207 0.78397,-0.60442 0.51321,-0.63725 -0.28637,-0.0347 -0.47192,0.3669 -0.59633,0.62717 -0.0735,0.15382 0.27233,-0.21159 0.42939,-0.27791 0.12445,-0.0525 0.26589,-0.0479 0.39884,-0.0718 1.27844,0.46124 1.7365,2.96599 2.07897,4.12435 0.74937,2.75117 1.62293,5.46425 2.65664,8.12144 0.45519,0.8802 1.11301,3.494 2.65554,2.90819 0.29473,-0.11193 0.52816,-0.34439 0.79224,-0.51658 0.68085,-0.72197 1.421,-1.3923 2.04254,-2.16591 1.8019,-2.24274 2.35801,-6.28736 2.72914,-9.03919 0.29662,-2.83264 0.41131,-5.6893 0.21484,-8.53244 -0.25359,-1.21387 -0.72293,-0.6894 -1.49448,0.71688 -0.0754,0.13742 0.34142,1.07843 0.34483,1.08695 1.5636,2.41796 4.48423,3.05293 7.13188,3.54695 3.2424,0.36373 6.60202,-0.007 9.46591,-1.68062 0.56766,-0.33181 1.07542,-0.75686 1.61313,-1.1353 2.30378,-2.14521 5.21194,-4.97255 4.59577,-8.51187 -0.068,-0.39039 -0.26398,-0.74727 -0.39596,-1.12091 -1.28827,-1.54209 -3.16622,-1.55834 -4.88539,-0.79339 -1.99248,1.2984 -2.65165,2.58239 -3.0224,4.72771 -0.36251,2.01089 -0.3265,4.02449 -0.10421,6.04615 0.44343,2.6948 1.69878,5.14752 4.34657,6.29815 2.7755,1.20614 4.44075,0.96507 7.51548,1.11884 4.71227,-0.15229 8.9698,-1.82958 13.23106,-3.63873 0,0 0.0234,-0.0297 0.0234,-0.0297 v 0 c -1.18686,0.50408 -2.32408,1.14642 -3.56058,1.51223 -3.22391,0.9538 -5.23677,0.78136 -8.58832,0.87613 -2.94932,-0.17783 -4.69474,0.021 -7.36861,-1.14087 -2.60662,-1.13264 -3.80156,-3.55561 -4.21246,-6.20559 -0.19904,-1.98366 -0.26022,-3.96284 0.0551,-5.94039 0.11639,-0.69509 0.231,-1.38211 0.55377,-2.01906 0.0978,-0.19301 0.54799,-0.62135 0.34342,-0.55085 -0.32558,0.1122 -0.53267,0.44039 -0.76377,0.69571 -0.1472,0.16263 0.34015,-0.27706 0.51023,-0.41559 1.58949,-0.79419 3.44228,-0.87402 4.63309,0.63804 0.11389,0.36567 0.28794,0.71781 0.34167,1.09703 0.31323,2.2107 -0.84439,4.28584 -2.17913,5.9358 -0.53083,0.38599 -1.03058,0.8188 -1.59247,1.15798 -2.83013,1.70836 -6.18861,2.12095 -9.42274,1.80038 -2.59989,-0.45964 -5.4755,-1.05017 -7.06559,-3.37493 -0.0799,-0.19306 -0.17611,-0.38018 -0.23977,-0.57919 -0.0446,-0.13942 0.053,-0.48425 -0.0834,-0.43113 -1.59217,0.62008 -1.04033,0.56997 -0.94196,1.36324 0.11319,2.84005 0.0897,5.68963 -0.24381,8.51611 -0.30079,2.07047 -0.6052,4.10558 -1.34308,6.07712 -0.20698,0.55302 -0.4789,1.0795 -0.71835,1.61925 -0.27168,0.44555 -0.62737,0.84972 -0.81506,1.33666 -0.0569,0.14752 0.26588,-0.17117 0.39882,-0.25675 -0.23892,0.18787 -0.44648,0.42459 -0.71677,0.5636 -1.41487,0.72767 -2.12658,-1.94403 -2.52961,-2.71109 -1.03355,-2.64822 -1.8865,-5.35634 -2.67565,-8.08676 -0.42019,-1.3411 -0.84139,-3.65977 -2.30916,-4.21317 -1.91975,0.19143 -3.21614,2.9087 -4.11379,4.41576 -0.968,1.92183 -1.86119,3.90834 -2.98834,5.74413 -0.30938,0.50388 -0.69133,0.96193 -0.98582,1.47465 -0.0346,0.0603 0.013,0.13854 0.0195,0.2078 -1.84944,1.7271 -3.40911,3.29915 -5.32508,0.75725 -1.59185,-2.77133 -1.85143,-5.04845 -1.41373,-8.20623 0.18998,-1.01852 0.23863,-1.42007 0.50814,-2.37927 0.0622,-0.22121 0.44754,-0.68244 0.2196,-0.65343 -1.27208,0.16194 -0.89188,0.63572 -0.88558,0.71333 -0.21804,1.99287 -0.83577,3.91857 -1.51767,5.79483 -0.58527,1.42729 -0.77804,2.02684 -1.55133,3.38042 -0.30983,0.54233 -0.70086,1.03561 -1.00926,1.57876 -0.0565,0.0994 -10e-4,0.2486 -0.077,0.33431 -0.81352,0.92117 -1.08829,0.97907 -2.07694,1.53505 -0.29141,0.0479 -0.58021,0.17156 -0.87421,0.14374 -1.97356,-0.18677 -1.99906,-3.92642 -2.07579,-5.24979 0.13819,-3.69711 0.8091,-7.34523 2.95174,-10.45138 -0.0155,-0.0751 -0.0946,-0.16559 -0.0465,-0.22537 0.69121,-0.85995 1.97098,-2.04673 3.1605,-2.15322 0.68088,-0.061 0.99978,0.33814 1.48041,0.7088 1.50883,2.01089 1.96961,4.35385 1.38482,6.8161 -0.41477,1.27401 -0.45271,1.61575 -1.14565,2.79955 -0.27521,0.47018 -0.63105,0.88898 -0.92069,1.35041 -0.0346,0.0552 -2.6e-4,0.14372 -0.0462,0.18993 -1.08765,1.09411 -1.46377,1.27595 -2.72361,2.16314 -2.90482,1.59121 -6.04104,2.73479 -9.40338,2.64381 -2.00763,-0.22143 -3.90824,-0.75955 -5.06507,-2.55377 -0.74976,-1.48403 -0.79513,-3.01705 -0.43109,-4.63456 0.47769,-1.98796 1.2743,-3.85321 2.27685,-5.63573 0.84462,-1.57405 1.72407,-3.12808 2.59728,-4.68628 0.3054,-0.54151 0.71648,-1.37007 -0.18421,-0.43241 -0.97127,0.8702 -2.02505,1.64057 -3.1308,2.33208 -2.21224,1.38056 -4.49967,2.72927 -7.08347,3.2651 -2.26892,0.34743 -4.51847,0.40428 -6.55136,-0.8321 -1.9448,-1.39233 -2.83783,-2.85599 -2.80321,-5.30718 0.0879,-1.16967 0.20695,-2.28449 0.6378,-3.3888 0.12292,-0.31505 0.39528,-0.57958 0.43819,-0.91502 0.0169,-0.13237 -0.4493,0.28552 -0.34675,0.20012 0.1863,-0.15512 0.4,-0.27399 0.6,-0.41099 2.17705,-0.43095 3.04838,1.07146 3.75352,2.89146 0.82685,2.93403 1.14072,5.96898 0.80321,9.01057 -0.57462,4.10079 -1.80183,8.05449 -3.26462,11.92278 -1.63377,4.36502 -3.39874,8.69314 -6.00947,12.58426 -1.66377,2.4686 -3.33846,4.89697 -5.84,6.59756 0,0 -0.66216,0.87724 -0.66216,0.87724 z" />
    <path
       style="fill:#55aa5c;fill-opacity:1;stroke:#55aa5c;stroke-width:2.12616;stroke-linejoin:round;stroke-dasharray:none;stroke-opacity:1"
       id="path1721"
       d="m 354.38782,442.02841 c 3.20125,0.0747 5.98587,-1.29711 8.55832,-2.82077 3.37093,-2.26494 6.23516,-5.04981 9.02563,-7.84447 2.51624,-2.55471 4.89913,-5.21039 6.87414,-8.11355 1.26799,-1.90959 2.02629,-3.97318 2.14526,-6.178 -0.20961,-1.93476 -0.40495,-3.34264 -2.75136,-3.92182 -2.79995,-0.11649 -4.46548,1.75375 -6.19351,3.41061 -1.26254,1.67589 -1.24702,3.43914 -0.4332,5.24844 0.75067,1.39807 1.99412,2.41696 3.43481,3.255 2.01349,0.99255 4.3523,0.91153 6.57761,0.74468 2.60282,-0.26928 4.92337,-1.26134 7.09713,-2.49402 0.84157,-0.51106 1.66277,-1.05276 2.41615,-1.66234 0.003,-0.005 0.007,-0.01 0.0102,-0.0149 -0.0936,-0.0287 -0.18672,-0.11371 -0.28077,-0.0862 -0.165,0.0483 -1.01265,1.44583 -1.10762,1.59434 -1.12791,1.76027 -2.17088,3.56123 -3.15467,5.38687 -1.16429,2.14317 -1.9218,4.42335 -1.79737,6.80795 0.38235,2.12066 1.83805,2.69202 4.04574,3.0782 4.50906,0.36699 6.59972,-2.09031 9.50298,-4.77028 2.28216,-2.49858 4.04208,-5.32761 5.40043,-8.2938 0.15672,-0.50038 0.48372,-0.99213 0.53255,-1.52056 0.0113,-0.12164 -0.11647,-0.38062 -0.22692,-0.30684 -0.58586,0.39136 -1.08262,0.8765 -1.62393,1.31475 -1.14582,1.7162 -1.64741,3.72044 -2.1244,5.6476 -0.37172,1.78965 -0.54367,3.64628 0.39215,5.31678 1.61882,1.55016 3.92576,-0.22857 5.28011,-1.19723 3.01511,-2.33238 5.27834,-5.14193 6.88344,-8.35566 0.25222,-0.3354 1.08113,-2.34671 -0.17662,-1.76324 -0.52788,0.50322 -1.10263,0.97127 -1.58365,1.50965 -0.90879,1.01715 -1.16081,4.08202 -1.28033,5.34182 -0.0717,1.81664 0.0612,3.69577 1.27326,5.22309 0.166,0.0992 0.30822,0.24035 0.498,0.29781 1.6097,0.48746 3.64431,-2.83711 4.34769,-3.97025 0.87098,-1.6133 2.01737,-3.05065 3.26995,-4.44185 0.0858,-0.0953 -0.39523,0.33619 -0.27978,0.26932 0.35306,-0.20452 0.66654,-0.45761 0.99981,-0.68642 1.65003,-0.83933 3.27941,-1.4592 4.75009,-0.0553 0.0953,0.22827 0.24166,0.44475 0.28594,0.6848 0.33811,1.8329 -0.46884,4.18831 -0.97285,5.96585 -0.24418,0.65584 -0.37589,1.35407 -0.67404,1.99555 -0.0331,0.0712 -0.19541,0.25315 -0.13354,0.19875 1.6423,-1.44399 1.37116,-0.8236 1.67386,-1.95312 0.69533,-2.13549 2.15237,-3.96583 3.74098,-5.65662 0.26459,-0.24697 0.52436,-0.498 0.79375,-0.74091 0.22599,-0.20379 -0.57298,0.35013 -0.66355,0.62351 -0.0667,0.20161 0.37339,-0.26408 0.57952,-0.36987 0.53224,-0.2732 0.85941,-0.22983 1.38519,-0.0166 1.29895,0.96939 1.33558,2.51802 1.33879,3.90609 -0.0662,1.2015 -0.33281,2.39048 -0.76898,3.52959 0.54267,-0.61334 1.17644,-1.17193 1.62799,-1.84003 0.20737,-0.30682 0.19349,-0.69388 0.31482,-1.03453 0.15408,-0.43262 0.32224,-0.86178 0.51083,-1.28369 0.67936,-1.51985 1.55715,-2.91361 2.50215,-4.31397 0.86464,-1.14855 1.80751,-2.25371 2.83055,-3.29697 0.22163,-0.226 0.93844,-0.86098 0.68631,-0.66127 -1.34633,1.06641 -1.08855,0.90428 -0.51444,0.63223 0.40512,0.45948 0.10436,1.65131 0.0635,2.18234 -0.13923,1.80627 -0.0537,0.53158 -0.16828,2.40365 0.006,1.79332 -0.53464,3.76399 1.18618,5.05002 0.22867,0.0576 0.44848,0.16171 0.68601,0.17298 2.59621,0.12314 4.90833,-2.79292 6.31171,-4.15096 1.25241,-1.73845 2.34872,-3.63519 2.87748,-5.65396 0.0117,-0.0825 0.10426,-0.30421 0.0351,-0.24757 -0.59731,0.48917 -1.21223,0.98215 -1.66294,1.58072 -0.17784,0.2362 -0.10822,0.55866 -0.15865,0.83851 -0.0731,0.40595 -0.14146,0.81253 -0.21178,1.21885 -0.36863,2.13005 -0.14338,0.96664 -0.64985,3.30444 -1.58391,5.65072 -2.98385,11.3341 -4.24002,17.04785 -0.11037,0.52106 -0.64529,3.08715 -0.82602,3.80669 -0.079,0.31454 -0.63714,0.99845 -0.27834,0.93482 1.47977,-0.26239 1.11632,-1.18886 1.06132,-1.9339 -0.0489,-0.66307 -0.087,-1.32672 -0.13053,-1.99009 -0.017,-5.32647 1.00256,-10.72497 3.46239,-15.6204 0.43005,-0.85585 0.96908,-1.66601 1.45362,-2.49902 1.29421,-1.6562 1.59339,-2.24182 3.20767,-3.58433 0.0528,-0.0439 0.1508,0.0548 0.21577,0.0262 0.90928,-0.39916 1.40821,-0.94468 2.45844,-0.99093 0.28367,-0.0125 0.54894,0.12863 0.82341,0.19296 0.17411,0.20613 0.40824,0.38199 0.52232,0.61841 0.93884,1.94569 -0.37653,4.22091 -1.5832,5.78937 -0.33395,0.28826 -0.59303,0.66473 -1.00184,0.86478 -0.17975,0.088 0.455,-0.5045 0.24953,-0.49664 -0.42347,0.0163 -0.73883,0.36681 -1.12001,0.52996 -0.85585,0.3663 -1.73964,0.62664 -2.6543,0.84577 -0.52363,0.0559 -1.37283,0.25652 -1.82048,-0.12597 0.001,-0.0147 0.003,-0.0293 0.005,-0.044 -0.28958,0.40193 -0.73518,0.74462 -0.86873,1.20581 -0.0415,0.14316 0.32932,0.0592 0.49031,0.10105 0.64169,0.16676 1.26403,0.3906 1.90566,0.56114 3.11398,0.67069 5.53368,-1.30062 7.72874,-2.96377 3.33413,-2.81341 6.35637,-6.15907 7.08513,-10.2815 -0.21526,-2.04949 -1.70491,-0.24437 -2.57143,0.75093 -0.24033,0.27606 -0.36106,1.28418 -0.40884,1.55886 -0.0513,1.37214 -0.0113,3.0899 1.21122,4.12385 0.21709,0.18367 0.4941,0.30308 0.74115,0.45462 2.69375,0.85389 5.25017,-0.52682 7.24852,-2.02642 2.46701,-2.05506 3.76335,-3.8272 3.708,-6.77627 -0.0504,0.38085 -0.034,-0.74088 -0.21076,-0.60054 -0.61525,0.48853 -1.23561,0.99844 -1.67464,1.61697 -0.18254,0.25717 0.45343,2.65274 0.50954,2.887 1.00631,3.77191 2.0922,7.52674 3.08843,11.30089 1.35634,4.67769 1.74269,9.44576 1.40829,14.24794 -0.45317,2.80636 -1.37509,6.04696 -4.08462,7.89435 -0.10006,0.0682 -0.007,-0.33031 -0.1324,-0.31322 -0.55745,0.0762 -1.04961,0.36425 -1.5744,0.54637 -0.51195,0.0316 -1.02481,0.13653 -1.53583,0.0949 -2.81212,-0.22941 -4.39361,-2.55966 -5.59991,-4.50551 -1.30303,-2.65578 -2.01766,-5.51988 -2.22319,-8.40131 -0.0319,-1.77988 0.41121,-3.51297 1.11753,-5.1695 0.43441,-0.88251 1.02,-1.69699 1.74892,-2.41168 -0.36428,0.32785 -0.75744,0.63263 -1.09287,0.98352 -0.13505,0.14127 0.32129,-0.23763 0.4875,-0.35025 0.23015,-0.15596 0.47547,-0.29444 0.70126,-0.45527 1.41253,-1.00611 2.75154,-2.09652 4.09959,-3.1678 0,0 0.0254,-0.0303 0.0254,-0.0303 v 0 c -0.40572,0.30324 -0.78862,0.63187 -1.21718,0.90971 -0.5058,0.32793 -1.13059,0.54394 -1.66463,0.83335 -1.17651,0.6376 -2.10468,1.49277 -3.04883,2.38657 -0.70633,0.73889 -1.28582,1.5626 -1.69544,2.46115 -0.68245,1.67657 -1.10189,3.42626 -1.04464,5.21723 0.24101,2.90023 0.96614,5.78327 2.29175,8.4542 1.2571,2.00976 2.88914,4.3569 5.76782,4.6501 0.52652,0.0537 1.05901,-0.0417 1.58852,-0.0624 0.53912,-0.17512 1.13966,-0.24423 1.61736,-0.52537 4.33927,-2.55382 6.45528,-5.66272 7.0297,-10.19836 0.31437,-4.81813 -0.0724,-9.60226 -1.43817,-14.29373 -0.99575,-3.77803 -2.07702,-7.53801 -3.05705,-11.31912 -0.17799,-0.78908 -0.35024,-1.40979 -0.42334,-2.1987 -0.0202,-0.21729 0.23756,-0.6877 -0.007,-0.65402 -2.0737,0.28544 -1.49406,0.59515 -1.36619,1.38565 0.007,1.13657 -0.17663,2.2328 -0.71534,3.28087 -0.19191,0.37339 -0.58322,0.67679 -0.66798,1.07975 -0.034,0.1615 0.32717,-0.1581 0.49074,-0.23715 -1.91036,1.50492 -4.38434,2.93846 -7.04564,2.17995 -0.23235,-0.13714 -0.49356,-0.24247 -0.69709,-0.41142 -1.19423,-0.99128 -1.18883,-2.68534 -1.12087,-4.00222 0.0568,-0.27851 0.0858,-0.56253 0.17021,-0.83555 0.0699,-0.22597 0.55133,-0.70215 0.29083,-0.65433 -0.45771,0.0841 -0.71773,0.52767 -1.07073,0.79752 -0.0522,0.0399 0.318,-0.42904 0.48271,0.003 0.0709,0.18616 0.0491,0.39034 0.0735,0.58552 -0.58369,2.96937 -2.37873,5.52594 -4.47848,7.86524 -2.13422,1.64693 -4.50444,3.65425 -7.57215,3.05855 -0.34591,-0.0885 -5.32795,-1.9342 -4.16838,0.60502 0.46891,0.47095 1.33242,0.35711 1.95036,0.27523 3.00988,-0.69877 5.25522,-1.97213 7.31715,-4.12318 1.19132,-1.62935 2.46991,-3.97898 1.41289,-5.94009 -0.1423,-0.26403 -0.41288,-0.45775 -0.61932,-0.68663 -0.30527,-0.0791 -0.59763,-0.24089 -0.9158,-0.23717 -0.79592,0.009 -1.98659,0.57541 -2.54007,0.96623 -2.37691,1.6784 -4.43424,3.57905 -5.99926,5.88167 -0.47711,0.83523 -1.00834,1.64817 -1.43132,2.5057 -2.43049,4.9273 -3.39031,10.3461 -3.4343,15.68715 0.0338,0.68029 0.0102,1.36471 0.1013,2.04089 0.0527,0.39038 -0.11082,1.21248 0.32886,1.1433 2.16464,-0.34059 2.36246,-4.9565 2.72482,-6.20901 1.24034,-5.72545 2.66544,-11.41157 4.2657,-17.06752 0.31319,-1.49903 0.56052,-2.99675 0.826,-4.50199 0.0486,-0.27564 0.47086,-0.78514 0.15722,-0.82531 -1.35433,-0.1735 -1.37327,0.33559 -1.47191,0.89141 -0.57309,1.98812 -1.59818,3.87388 -2.89792,5.57054 0.13303,-0.0548 0.49102,-0.26555 0.39909,-0.16468 -0.99357,1.09 -2.80292,2.21695 -4.44537,1.87695 -1.61094,-1.16915 -1.05565,-3.29754 -1.06934,-4.92487 0.0495,-0.78265 0.49228,-4.01145 0.11855,-4.62944 -0.0602,-0.0994 -0.19841,-0.14235 -0.29764,-0.21353 -1.84173,0.64329 -4.55625,4.26839 -5.75812,5.7365 -1.19983,1.80713 -2.30304,3.63886 -3.00173,5.65003 -0.12173,0.3504 -0.65444,0.85977 -0.30951,1.06494 0.41981,0.24971 0.97106,-0.25508 1.45658,-0.38263 0.40231,-1.1573 0.68228,-2.34886 0.71405,-3.5628 -0.0267,-1.46228 -0.13192,-3.0303 -1.51048,-4.03048 -0.40269,-0.1748 -0.54553,-0.30481 -1.01556,-0.24641 -1.5419,0.19161 -2.85907,2.14815 -3.96292,3.02115 -1.58506,1.71976 -3.0453,3.57713 -3.71484,5.74155 -0.21731,0.99313 -0.35213,0.84858 1.41179,-0.20954 0.24209,-0.14521 0.42878,-1.16011 0.48252,-1.33343 0.0895,-0.2888 0.17427,-0.57873 0.26141,-0.86808 0.48994,-1.79016 1.31128,-4.21167 0.89604,-6.04586 -0.0584,-0.25785 -0.22714,-0.48634 -0.34071,-0.72952 -1.60016,-1.46552 -3.1951,-0.93313 -5.01624,-0.0491 -2.86512,1.91104 -4.98521,4.32338 -6.55235,7.1522 -0.22045,0.34822 -0.42934,0.70231 -0.66132,1.04467 -0.20059,0.29603 -0.69669,0.52909 -0.63577,0.86959 0.0466,0.26042 0.48258,-0.31411 0.70326,-0.49236 0.15892,-0.12836 -0.31885,0.26771 -0.51727,0.34213 -0.45273,0.16981 -0.58309,-0.0184 -0.93558,-0.21978 -1.17385,-1.50321 -1.27123,-3.35728 -1.19466,-5.13224 0.13428,-1.29108 0.30275,-2.55703 0.69387,-3.81184 0.0943,-0.30263 0.20716,-0.60123 0.3371,-0.89346 0.0879,-0.1978 0.54224,-0.64577 0.31523,-0.57365 -0.42837,0.1361 -0.68125,0.5321 -1.02187,0.79815 0.90197,-0.95802 -0.0908,1.41745 -0.16877,1.45336 -1.10795,2.20999 -2.52111,4.26052 -4.34956,6.07187 -1.19464,0.88492 -3.45569,2.75932 -4.96747,1.33127 -0.89249,-1.65097 -0.68123,-3.47996 -0.30846,-5.23281 0.48422,-1.90446 0.9637,-3.94379 2.21243,-5.58726 -0.40526,0.31777 -0.80126,0.64495 -1.2158,0.95331 -0.0186,0.0139 0.0159,-0.0838 0.0182,-0.0624 0.0632,0.56899 -0.43525,1.13464 -0.55067,1.66731 -1.35182,2.94603 -3.10267,5.75454 -5.39901,8.21803 -1.24127,1.92126 -4.37468,2.69803 -6.73132,2.54467 -2.12686,-0.36932 -3.49278,-0.90413 -3.8216,-2.95327 -0.0837,-2.37577 0.70751,-4.6335 1.88221,-6.7601 0.99731,-1.82635 2.04926,-3.62952 3.18606,-5.39205 0.12398,-0.18917 1.11105,-1.414 1.12531,-1.583 0.008,-0.0968 -0.0896,-0.17743 -0.13439,-0.26614 -0.0137,0.007 -0.0275,0.0137 -0.0412,0.0205 -0.7292,0.65354 -1.58687,1.18606 -2.42296,1.72567 -2.1502,1.25801 -4.45446,2.27286 -7.04837,2.57248 -2.20141,0.18631 -4.48768,0.26167 -6.51901,-0.63923 -1.43526,-0.78565 -2.67539,-1.76563 -3.41641,-3.13235 -0.78611,-1.7423 -0.82332,-3.43867 0.42885,-5.04105 -0.13828,0.0761 -0.5177,0.33949 -0.41484,0.22814 1.0365,-1.12222 2.69991,-1.7905 4.31539,-1.81411 2.30462,0.47205 2.4454,1.89166 2.68862,3.73397 -0.091,2.17913 -0.86284,4.20421 -2.12128,6.08483 -1.96628,2.8725 -4.31155,5.5164 -6.80966,8.04607 -2.29159,2.30309 -4.59264,4.62395 -7.40253,6.4581 -2.57407,1.55914 -5.34202,2.92156 -8.56021,2.92284 0,0 -0.64514,0.65156 -0.64514,0.65156 z" />
    <rect
       style="fill:#55aa5c;fill-opacity:1;stroke:#55aa5c;stroke-width:2;stroke-linejoin:round;stroke-dasharray:none;stroke-opacity:1"
       id="rect19800"
       width="4.684742"
       height="0.7269488"
       x="581.79083"
       y="410.3555" />
  </g>
</svg>
