<svg xmlns="http://www.w3.org/2000/svg" height="1200" width="1600" version="1.1" xmlns:xlink="http://www.w3.org/1999/xlink" xmlns:svgjs="http://svgjs.com/svgjs"><rect fill="#d1dcff" width="1600" height="1200"></rect><g><path d="M177.78 1008.23L1112.71 1008.23" stroke="#333333" stroke-width="2" stroke-linecap="round" stroke-linejoin="round" opacity="1" fill="none"></path><path d="M1244.77 1008.23L1390.22 1008.23" stroke="#333333" stroke-width="2" stroke-linecap="round" stroke-linejoin="round" opacity="1" fill="none"></path><path d="M177.78 1024.61L629.45 1024.61" stroke="#333333" stroke-width="2" stroke-linecap="round" stroke-linejoin="round" opacity="1" fill="none"></path></g><g><path d="M846.74 600.69H822.42V669.57H846.74V600.69Z" fill="#499c2f" stroke="#333333" stroke-width="2" stroke-linecap="round" stroke-linejoin="round" opacity="1"></path><path d="M870.94 613.74H846.63V669.57H870.94V613.74Z" fill="#ffffff" stroke="#333333" stroke-width="2" stroke-linecap="round" stroke-linejoin="round" opacity="1"></path><path d="M895.26 628.71H870.94V669.57H895.26V628.71Z" fill="#56466d" stroke="#333333" stroke-width="2" stroke-linecap="round" stroke-linejoin="round" opacity="1"></path><path d="M907.42 607.22H895.26V669.57H907.42V607.22Z" fill="#6e34a2" stroke="#333333" stroke-width="2" stroke-linecap="round" stroke-linejoin="round" opacity="1"></path><path d="M917.87 609.83L907.34 615.54 940.56 669.53 951.09 663.82 917.87 609.83Z" fill="#56466d" stroke="#333333" stroke-width="2" stroke-linecap="round" stroke-linejoin="round" opacity="1"></path></g><g><path d="M1342.68 580.92V406.68" stroke="#333333" stroke-width="2" stroke-linecap="round" stroke-linejoin="round" opacity="1" fill="none"></path><path d="M1342.68 382.07V354.96" stroke="#333333" stroke-width="2" stroke-linecap="round" stroke-linejoin="round" opacity="1" fill="none"></path><path d="M1381.92 580.92V496.74" stroke="#333333" stroke-width="2" stroke-linecap="round" stroke-linejoin="round" opacity="1" fill="none"></path></g><g><path d="M695.9 438.4V537.8" stroke="#333333" stroke-width="2" stroke-linecap="round" stroke-linejoin="round" opacity="1" fill="none"></path><path d="M680.4 462.3V503.1" stroke="#333333" stroke-width="2" stroke-linecap="round" stroke-linejoin="round" opacity="1" fill="none"></path><path d="M651.9 453.7V488.1" stroke="#333333" stroke-width="2" stroke-linecap="round" stroke-linejoin="round" opacity="1" fill="none"></path><path d="M651.9 427.7V443.2" stroke="#333333" stroke-width="2" stroke-linecap="round" stroke-linejoin="round" opacity="1" fill="none"></path></g><g><path d="M701.34 557.87L726.5 570.88C740 577.8 750.76 588.94 757.33 602.64L771.69 632.63C776.31 642.33 787.01 647.54 797.45 645.3 807.46 643.16 814.81 634.75 815.73 624.63L815.7 624.53C816.34 617.22 821.67 611.23 828.73 609.72 835.8 608.21 842.98 611.41 846.51 617.6L850.69 624.75C853.48 629.55 859.1 632.1 864.58 630.92 871.54 629.43 876.01 622.52 874.52 615.57L873.95 612.93" stroke="#333333" stroke-width="2" stroke-linecap="round" stroke-linejoin="round" opacity="1" fill="none"></path><path d="M648.67 559.01C629.98 572.6 619.96 596.35 625.13 620.48 632.11 653.05 664.1 673.75 696.67 666.78 729.23 659.8 749.94 627.81 742.96 595.24 735.99 562.68 704 541.97 671.43 548.95 666.58 549.99 661.87 551.66 657.56 553.68" fill="#beb4ff" opacity="1" stroke-width="2" stroke="none"></path><path d="M648.67 559.01C629.98 572.6 619.96 596.35 625.13 620.48 632.11 653.05 664.1 673.75 696.67 666.78 729.23 659.8 749.94 627.81 742.96 595.24 735.99 562.68 704 541.97 671.43 548.95 666.58 549.99 661.87 551.66 657.56 553.68" stroke="#333333" stroke-width="2" stroke-linecap="round" stroke-linejoin="round" opacity="1" fill="none"></path><path d="M726.79 593.31C724.59 591.8 721.46 591.58 719.05 593.2 715.73 595.24 714.7 599.65 716.73 602.96 718.76 606.27 723.17 607.31 726.48 605.28 729.8 603.25 730.84 598.83 728.8 595.52 728.48 595.04 728.16 594.56 727.75 594.2" fill="#ffffff" opacity="1" stroke-width="2" stroke="none"></path><path d="M726.79 593.31C724.59 591.8 721.46 591.58 719.05 593.2 715.73 595.24 714.7 599.65 716.73 602.96 718.76 606.27 723.17 607.31 726.48 605.28 729.8 603.25 730.84 598.83 728.8 595.52 728.48 595.04 728.16 594.56 727.75 594.2" stroke="#333333" stroke-width="2" stroke-linecap="round" stroke-linejoin="round" opacity="1" fill="none"></path><path d="M700.4 620.9C705.45 614.63 706.72 605.65 702.77 598.01 697.47 587.68 684.69 583.59 674.36 588.89 664.03 594.18 659.94 606.97 665.24 617.3 670.53 627.62 683.32 631.72 693.65 626.42 695.24 625.64 696.58 624.69 697.88 623.53" fill="#ffffff" opacity="1" stroke-width="2" stroke="none"></path><path d="M700.4 620.9C705.45 614.63 706.72 605.65 702.77 598.01 697.47 587.68 684.69 583.59 674.36 588.89 664.03 594.18 659.94 606.97 665.24 617.3 670.53 627.62 683.32 631.72 693.65 626.42 695.24 625.64 696.58 624.69 697.88 623.53" stroke="#333333" stroke-width="2" stroke-linecap="round" stroke-linejoin="round" opacity="1" fill="none"></path><path d="M677.29 575.8C673.45 576.62 669.67 574.17 668.85 570.34 668.02 566.49 670.47 562.71 674.31 561.89 678.16 561.07 681.93 563.51 682.76 567.36 683.58 571.19 681.14 574.98 677.29 575.8Z" fill="#ffffff" stroke="#333333" stroke-width="2" stroke-linecap="round" stroke-linejoin="round" opacity="1"></path><path d="M693.95 653.58C690.12 654.4 686.33 651.95 685.51 648.12 684.68 644.27 687.14 640.49 690.97 639.67 694.82 638.85 698.59 641.29 699.42 645.14 700.24 648.97 697.8 652.76 693.95 653.58Z" fill="#ffffff" stroke="#333333" stroke-width="2" stroke-linecap="round" stroke-linejoin="round" opacity="1"></path><path d="M652.22 593.08C648.39 593.9 644.6 591.45 643.78 587.61 642.95 583.76 645.41 579.99 649.24 579.17 653.09 578.34 656.86 580.78 657.69 584.63 658.51 588.47 656.07 592.25 652.22 593.08Z" fill="#ffffff" stroke="#333333" stroke-width="2" stroke-linecap="round" stroke-linejoin="round" opacity="1"></path><path d="M719.02 636.31C715.18 637.13 711.4 634.68 710.58 630.84 709.75 627 712.2 623.22 716.04 622.4 719.89 621.57 723.66 624.02 724.49 627.86 725.31 631.7 722.87 635.48 719.02 636.31Z" fill="#ffffff" stroke="#333333" stroke-width="2" stroke-linecap="round" stroke-linejoin="round" opacity="1"></path><path d="M646.73 623.02C642.9 623.84 639.11 621.4 638.29 617.56 637.46 613.72 639.92 609.93 643.75 609.11 647.6 608.29 651.38 610.74 652.2 614.58 653.02 618.42 650.58 622.2 646.73 623.02Z" fill="#ffffff" stroke="#333333" stroke-width="2" stroke-linecap="round" stroke-linejoin="round" opacity="1"></path><path d="M664.01 648.09C660.17 648.91 656.38 646.46 655.56 642.63 654.74 638.78 657.19 635 661.03 634.18 664.87 633.36 668.65 635.8 669.47 639.65 670.29 643.48 667.85 647.27 664.01 648.09Z" fill="#ffffff" stroke="#333333" stroke-width="2" stroke-linecap="round" stroke-linejoin="round" opacity="1"></path><path d="M707.24 581.29C703.4 582.11 699.61 579.66 698.79 575.83 697.97 571.98 700.42 568.2 704.26 567.38 708.1 566.56 711.88 569 712.7 572.85 713.52 576.68 711.08 580.47 707.24 581.29Z" fill="#ffffff" stroke="#333333" stroke-width="2" stroke-linecap="round" stroke-linejoin="round" opacity="1"></path></g><g><path d="M445.69 525.85L520.48 513.37 518.52 448.24 499.99 428.3 469.82 435 441.5 433.43 410.55 495.23 445.69 525.85Z" fill="#499c2f" stroke="#333333" stroke-width="2" stroke-linecap="round" stroke-linejoin="round" opacity="1"></path><path d="M520.13 506.92L426.99 496.19" stroke="#333333" stroke-width="2" stroke-linecap="round" stroke-linejoin="round" opacity="1" fill="none"></path><path d="M508.57 483.55L429.49 474.43" stroke="#333333" stroke-width="2" stroke-linecap="round" stroke-linejoin="round" opacity="1" fill="none"></path><path d="M494.16 459.84L432 452.68" stroke="#333333" stroke-width="2" stroke-linecap="round" stroke-linejoin="round" opacity="1" fill="none"></path><path d="M518.95 462.7L505.96 461.2" stroke="#333333" stroke-width="2" stroke-linecap="round" stroke-linejoin="round" opacity="1" fill="none"></path><path d="M510.54 439.69L469.82 435" stroke="#333333" stroke-width="2" stroke-linecap="round" stroke-linejoin="round" opacity="1" fill="none"></path><path d="M489.15 503.35L487.36 518.87" stroke="#333333" stroke-width="2" stroke-linecap="round" stroke-linejoin="round" opacity="1" fill="none"></path><path d="M493.12 468.86L491.65 481.6" stroke="#333333" stroke-width="2" stroke-linecap="round" stroke-linejoin="round" opacity="1" fill="none"></path><path d="M455.9 499.52L454.06 515.51" stroke="#333333" stroke-width="2" stroke-linecap="round" stroke-linejoin="round" opacity="1" fill="none"></path><path d="M460.92 456.01L459.43 468.93" stroke="#333333" stroke-width="2" stroke-linecap="round" stroke-linejoin="round" opacity="1" fill="none"></path><path d="M474.34 479.6L471.84 501.35" stroke="#333333" stroke-width="2" stroke-linecap="round" stroke-linejoin="round" opacity="1" fill="none"></path><path d="M477.93 448.46L476.85 457.85" stroke="#333333" stroke-width="2" stroke-linecap="round" stroke-linejoin="round" opacity="1" fill="none"></path><path d="M441 475.76L439.92 485.15" stroke="#333333" stroke-width="2" stroke-linecap="round" stroke-linejoin="round" opacity="1" fill="none"></path><path d="M445.69 525.85L465.2 541.66 454.73 556.37 463.98 569.49 457.86 585.46" stroke="#333333" stroke-width="2" stroke-linecap="round" stroke-linejoin="round" opacity="1" fill="none"></path><path d="M499.99 428.3L507.1 401.15 488.56 385.63 488.88 353.46 511.29 332.87 491.01 307.26 515.17 300.91 512.16 280.31" stroke="#333333" stroke-width="2" stroke-linecap="round" stroke-linejoin="round" opacity="1" fill="none"></path><path d="M488.88 353.46L460.62 355.66" stroke="#333333" stroke-width="2" stroke-linecap="round" stroke-linejoin="round" opacity="1" fill="none"></path></g><g><path d="M349.8 304.9L342.2 328.8 356.6 359.8 344.9 393.8 354.2 410.6 333.7 446.7 345.1 456.7 333.7 475 347.5 489.3 323.7 524.8 351 537 341.7 565.7 358.8 578.9 349.8 619.6 320.1 631.3 318.3 660.5 293.2 670.2" stroke="#333333" stroke-width="2" stroke-linecap="round" stroke-linejoin="round" opacity="1" fill="none"></path><path d="M379.2 697.7L355.9 679.2 354.5 653.6 320.1 631.3" stroke="#333333" stroke-width="2" stroke-linecap="round" stroke-linejoin="round" opacity="1" fill="none"></path></g><g><path d="M435.3 352.59L339.81 329.46 299.26 496.82 430.49 528.61 471.03 361.25 444.16 354.74" fill="#beb4ff" opacity="1" stroke-width="2" stroke="none"></path><path d="M435.3 352.59L339.81 329.46 299.26 496.82 430.49 528.61 471.03 361.25 444.16 354.74" stroke="#333333" stroke-width="2" stroke-linecap="round" stroke-linejoin="round" opacity="1" fill="none"></path><path d="M420.92 470.01L408 523.37 321.95 502.52 334.88 449.17C335.6 446.21 336.9 443.4 338.43 440.96 342.59 434.57 349.56 430.31 357.12 429.64 359.89 429.38 362.75 429.65 365.5 430.32L402.02 439.17C415.71 442.48 424.26 456.23 420.92 470.01Z" fill="#ffffff" stroke="#333333" stroke-width="2" stroke-linecap="round" stroke-linejoin="round" opacity="1"></path><path d="M366.12 407.12C366.12 407.12 386.31 392.63 411.12 408.96 413.88 410.88 412.86 425.85 411.91 429.79 411.24 432.54 410.18 435.2 408.79 437.47 408.45 438.02 407.97 438.73 407.53 439.25 401.47 447.48 390.74 451.76 380.21 449.2 368.79 446.44 361.03 436.74 360.26 425.72 360.07 423.06 360.32 420.31 361.01 417.45 361.96 413.52 363.76 409.99 366.12 407.12Z" fill="#ffffff" stroke="#333333" stroke-width="2" stroke-linecap="round" stroke-linejoin="round" opacity="1"></path><path d="M366.12 407.12C368.55 397.08 378.63 390.77 388.87 393.25L419.19 400.59 416.25 412.7 412.25 429.24 412.1 429.83C405.8 428.31 401.75 422.22 402.74 416L366.12 407.12V407.12Z" fill="#56466d" stroke="#333333" stroke-width="2" stroke-linecap="round" stroke-linejoin="round" opacity="1"></path><path d="M373.8 418.88L371.86 426.86" stroke="#333333" stroke-width="2" stroke-linecap="round" stroke-linejoin="round" opacity="1" fill="none"></path><path d="M378.66 428.5C378.2 430.37 376.37 431.49 374.5 431.04 372.53 430.56 371.41 428.73 371.86 426.86" stroke="#333333" stroke-width="2" stroke-linecap="round" stroke-linejoin="round" opacity="1" fill="none"></path><path d="M389.14 518.59L365.32 512.82 338.14 440.89C342.39 434.52 349.26 430.24 356.82 429.57L389.14 518.59Z" fill="#fa830e" stroke="#333333" stroke-width="2" stroke-linecap="round" stroke-linejoin="round" opacity="1"></path><path d="M371.44 500.02L377.33 515.73" stroke="#333333" stroke-width="2" stroke-linecap="round" stroke-linejoin="round" opacity="1" fill="none"></path><path d="M349.91 441.34L369.16 493.53" stroke="#333333" stroke-width="2" stroke-linecap="round" stroke-linejoin="round" opacity="1" fill="none"></path><path d="M386.97 476.79L404.2 480.97" stroke="#333333" stroke-width="2" stroke-linecap="round" stroke-linejoin="round" opacity="1" fill="none"></path></g><g><path d="M1011.98 709.7H1296.91" stroke="#333333" stroke-width="2" stroke-linecap="round" stroke-linejoin="round" opacity="1" fill="none"></path><path d="M1279.61 348.82H1029.39V709.7H1279.61V348.82Z" fill="#6e34a2" stroke="#333333" stroke-width="2" stroke-linecap="round" stroke-linejoin="round" opacity="1"></path><path d="M1297.02 348.5H1011.98V363.48H1297.02V348.5Z" fill="#56466d" stroke="#333333" stroke-width="2" stroke-linecap="round" stroke-linejoin="round" opacity="1"></path><path d="M1154.39 426.67V502.73" stroke="#333333" stroke-width="2" stroke-linecap="round" stroke-linejoin="round" opacity="1" fill="none"></path><path d="M1154.39 511.59C1156.84 511.59 1158.83 509.61 1158.83 507.16 1158.83 504.71 1156.84 502.73 1154.39 502.73 1151.95 502.73 1149.96 504.71 1149.96 507.16 1149.96 509.61 1151.95 511.59 1154.39 511.59Z" fill="#56466d" stroke="#333333" stroke-width="2" stroke-linecap="round" stroke-linejoin="round" opacity="1"></path><path d="M1279.61 363.37H1029.39V426.67H1279.61V363.37Z" fill="#56466d" stroke="#333333" stroke-width="2" stroke-linecap="round" stroke-linejoin="round" opacity="1"></path></g><g><path d="M795.74 222.07C795.74 222.07 795.74 222 795.74 222.07 795.74 222 795.81 222 795.81 222L846.59 213.2C846.65 213.2 846.65 213.2 846.65 213.27L858.43 275.21C858.43 275.28 858.43 275.28 858.37 275.28L808.2 284.89C808.13 284.89 808.13 284.89 808.13 284.82L795.74 222.07Z" fill="#beb4ff" stroke="#333333" stroke-width="2" stroke-linecap="round" stroke-linejoin="round" opacity="1"></path><path d="M547.22 397.75L592.78 380.82H592.85V380.89C592.78 382.79 592.04 410.14 623.38 421.92L623.45 421.98C623.45 421.98 623.45 422.05 623.38 422.05 610.11 427.26 577.62 442.56 576.67 443.04 576.67 443.04 576.67 443.04 576.6 443.04 575.72 442.84 548.71 435.59 547.22 397.75Z" fill="#beb4ff" stroke="#333333" stroke-width="2" stroke-linecap="round" stroke-linejoin="round" opacity="1"></path><path d="M687.83 330.25C687.83 330.25 687.83 330.18 687.83 330.25 687.83 330.18 687.9 330.18 687.9 330.18L736.3 337.97C736.3 337.97 736.37 337.97 736.37 338.04 736.57 339.66 741.58 379.06 718.84 395.58H718.77C709.5 393.82 673.55 386.98 671.25 386.51 671.25 386.51 671.18 386.51 671.18 386.44V386.37C672.67 384.68 695.41 357.8 687.83 330.25Z" fill="#fa830e" stroke="#333333" stroke-width="2" stroke-linecap="round" stroke-linejoin="round" opacity="1"></path><path d="M745.11 416.43C756.82 412.1 772.52 403.64 781.53 388L781.6 387.93C781.6 387.93 781.66 387.93 781.66 388 785.79 396.8 802.18 423.74 802.78 424.69V424.76C802.45 425.84 792.22 454.68 748.56 458 748.56 458 748.49 458 748.49 457.93 741.99 443.92 730.75 422.19 730.01 420.63V420.56C730.01 420.56 730.01 420.56 730.08 420.49 730.69 420.43 734.14 419.82 739.08 418.33" fill="#6e34a2" opacity="1" stroke-width="2" stroke="none"></path><path d="M745.11 416.43C756.82 412.1 772.52 403.64 781.53 388L781.6 387.93C781.6 387.93 781.66 387.93 781.66 388 785.79 396.8 802.18 423.74 802.78 424.69V424.76C802.45 425.84 792.22 454.68 748.56 458 748.56 458 748.49 458 748.49 457.93 741.99 443.92 730.75 422.19 730.01 420.63V420.56C730.01 420.56 730.01 420.56 730.08 420.49 730.69 420.43 734.14 419.82 739.08 418.33" stroke="#333333" stroke-width="2" stroke-linecap="round" stroke-linejoin="round" opacity="1" fill="none"></path><path d="M888.76 299.11C885.99 312.45 880.64 328.76 870.35 340.54H870.28C861.14 337.09 823.09 324.5 821 323.82 821 323.82 820.93 323.82 820.93 323.75V323.68C822.15 322.13 842.12 296 840.09 264.65V264.58H840.16L891.61 275.21 891.67 275.28C891.67 275.89 891.54 281.17 890.46 288.82" fill="#fa830e" opacity="1" stroke-width="2" stroke="none"></path><path d="M888.76 299.11C885.99 312.45 880.64 328.76 870.35 340.54H870.28C861.14 337.09 823.09 324.5 821 323.82 821 323.82 820.93 323.82 820.93 323.75V323.68C822.15 322.13 842.12 296 840.09 264.65V264.58H840.16L891.61 275.21 891.67 275.28C891.67 275.89 891.54 281.17 890.46 288.82" stroke="#333333" stroke-width="2" stroke-linecap="round" stroke-linejoin="round" opacity="1" fill="none"></path></g><g><path d="M692.5 934.45H722.19L803.65 919.71 885.12 934.45H926.35C946.64 934.45 963.05 950.86 963.05 971.15 963.05 991.43 946.64 1007.84 926.35 1007.84H833.01 785.84L692.5 1007.84C672.21 1007.84 655.8 991.43 655.8 971.15 655.8 950.93 672.21 934.45 692.5 934.45Z" fill="#56466d" stroke="#333333" stroke-width="2" stroke-linecap="round" stroke-linejoin="round" opacity="1"></path><path d="M722.19 934.45L885.12 934.45V816.96C885.12 791.87 864.77 771.52 839.68 771.52H767.56C742.47 771.52 722.12 791.87 722.12 816.96V934.45H722.19Z" fill="#ffffff" stroke="#333333" stroke-width="2" stroke-linecap="round" stroke-linejoin="round" opacity="1"></path><path d="M785.84 934.45V1007.91" stroke="#333333" stroke-width="2" stroke-linecap="round" stroke-linejoin="round" opacity="1" fill="none"></path><path d="M828.54 854.39C828.54 859.86 832.94 864.26 838.41 864.26L753.68 886.81 769.02 934.45 858.23 910.3C874.11 906.03 885.05 891.62 885.05 875.2" stroke="#333333" stroke-width="2" stroke-linecap="round" stroke-linejoin="round" opacity="1" fill="none"></path><path d="M739.67 934.45V830.03" stroke="#333333" stroke-width="2" stroke-linecap="round" stroke-linejoin="round" opacity="1" fill="none"></path><path d="M767.56 746.1H822.94L824.67 763.91C824.67 773.45 827.14 779.52 836.81 781.66 830.94 795.8 817 805.75 800.72 805.75 779.03 805.75 761.62 788.13 761.62 766.65 761.62 754.17 767.36 746.63 767.56 746.1Z" fill="#ffffff" stroke="#333333" stroke-width="2" stroke-linecap="round" opacity="1"></path><path d="M780.5 761.78V776.46" stroke="#333333" stroke-width="2" stroke-linecap="round" opacity="1" fill="none"></path><path d="M791.04 776.46C791.04 779.32 788.71 781.73 785.77 781.73 782.84 781.73 780.5 779.39 780.5 776.46" stroke="#333333" stroke-width="2" stroke-linecap="round" opacity="1" fill="none"></path><path d="M749.81 733.49C749.81 724.48 757.15 717.14 766.16 717.14 773.09 717.14 779.03 721.48 781.37 727.55H800.65C828.41 727.55 847.49 755.84 836.75 781.66 827.21 781.66 819.53 773.92 819.53 764.45V749.83H765.42C756.75 749.37 749.81 742.23 749.81 733.49Z" fill="#56466d" stroke="#333333" stroke-width="2" stroke-linecap="round" stroke-linejoin="round" opacity="1"></path></g><g><path d="M563.67 787.36L204.37 851.69 231.3 1006.32 590.6 941.99 563.67 787.36Z" fill="#6e34a2" stroke="#333333" stroke-width="2" stroke-linecap="round" stroke-linejoin="round" opacity="1"></path><path d="M443.95 808.94L470.88 963.35" stroke="#333333" stroke-width="2" stroke-linecap="round" stroke-linejoin="round" opacity="1" fill="none"></path><path d="M329.42 860.57L351.05 984.83" stroke="#333333" stroke-width="2" stroke-linecap="round" stroke-linejoin="round" opacity="1" fill="none"></path><path d="M324.2 830.27L328.43 854.58" stroke="#333333" stroke-width="2" stroke-linecap="round" stroke-linejoin="round" opacity="1" fill="none"></path><path d="M517.25 880.82C520.26 880.82 522.7 878.35 522.7 875.29 522.7 872.25 520.26 869.77 517.25 869.77 514.24 869.77 511.8 872.25 511.8 875.29 511.8 878.35 514.24 880.82 517.25 880.82Z" fill="#499c2f" stroke="#333333" stroke-width="2" stroke-linecap="round" stroke-linejoin="round" opacity="1"></path><path d="M397.5 902.29C400.51 902.29 402.95 899.82 402.95 896.77 402.95 893.73 400.51 891.25 397.5 891.25 394.49 891.25 392.05 893.73 392.05 896.77 392.05 899.82 394.49 902.29 397.5 902.29Z" fill="#499c2f" stroke="#333333" stroke-width="2" stroke-linecap="round" stroke-linejoin="round" opacity="1"></path><path d="M277.75 923.77C280.76 923.77 283.2 921.3 283.2 918.25 283.2 915.2 280.76 912.73 277.75 912.73 274.74 912.73 272.3 915.2 272.3 918.25 272.3 921.3 274.74 923.77 277.75 923.77Z" fill="#499c2f" stroke="#333333" stroke-width="2" stroke-linecap="round" stroke-linejoin="round" opacity="1"></path><path d="M206.57 864.1L184.55 868.08" stroke="#333333" stroke-width="2" stroke-linecap="round" stroke-linejoin="round" opacity="1" fill="none"></path><path d="M229.19 993.8L207.1 997.72" stroke="#333333" stroke-width="2" stroke-linecap="round" stroke-linejoin="round" opacity="1" fill="none"></path></g><g><path d="M589.84 992.83C589.84 992.92 589.74 992.92 589.84 992.83 546.65 999.84 516.93 999.57 470.31 992.92H458.98C458.87 992.92 458.87 992.92 458.87 992.83V977.52C458.87 977.43 458.87 977.43 458.98 977.43H478.87C522.17 968.3 549.96 967.65 589.84 977.43L589.95 977.52V992.83H589.84Z" fill="#499c2f" stroke="#333333" stroke-width="2" stroke-linecap="round" stroke-linejoin="round" opacity="1"></path><path d="M609.73 977.34C609.73 977.34 609.73 977.43 609.73 977.34L589.74 977.43H478.87C478.76 977.43 478.76 977.43 478.76 977.34V962.02C478.76 961.93 478.76 961.93 478.87 961.93H609.62C609.73 961.93 609.73 961.93 609.73 962.02V977.34Z" fill="#499c2f" stroke="#333333" stroke-width="2" stroke-linecap="round" stroke-linejoin="round" opacity="1"></path><path d="M588.67 977.43V970.42" stroke="#333333" stroke-width="2" stroke-linecap="round" stroke-linejoin="round" opacity="1" fill="none"></path><path d="M501.32 977.43V970.42" stroke="#333333" stroke-width="2" stroke-linecap="round" stroke-linejoin="round" opacity="1" fill="none"></path><path d="M558.3 977.43V967.1" stroke="#333333" stroke-width="2" stroke-linecap="round" stroke-linejoin="round" opacity="1" fill="none"></path><path d="M481.33 992.92V985.91" stroke="#333333" stroke-width="2" stroke-linecap="round" stroke-linejoin="round" opacity="1" fill="none"></path><path d="M514.68 992.92V982.59" stroke="#333333" stroke-width="2" stroke-linecap="round" stroke-linejoin="round" opacity="1" fill="none"></path><path d="M500.46 1008.42H601.18C601.28 1008.42 601.28 1008.42 601.28 1008.33V993.02C601.28 992.92 601.28 992.92 601.18 992.92H470.42C470.31 992.92 470.31 992.92 470.31 993.02V1008.33C470.31 1008.42 470.31 1008.42 470.42 1008.42H491.48" fill="#499c2f" opacity="1" stroke-width="2" stroke="none"></path><path d="M500.46 1008.42H601.18C601.28 1008.42 601.28 1008.42 601.28 1008.33V993.02C601.28 992.92 601.28 992.92 601.18 992.92H470.42C470.31 992.92 470.31 992.92 470.31 993.02V1008.33C470.31 1008.42 470.31 1008.42 470.42 1008.42H491.48" stroke="#333333" stroke-width="2" stroke-linecap="round" stroke-linejoin="round" opacity="1" fill="none"></path><path d="M580.22 1008.42V1001.41" stroke="#333333" stroke-width="2" stroke-linecap="round" stroke-linejoin="round" opacity="1" fill="none"></path><path d="M514.79 1008.42V1001.41" stroke="#333333" stroke-width="2" stroke-linecap="round" stroke-linejoin="round" opacity="1" fill="none"></path><path d="M566.86 1003.26V992.92" stroke="#333333" stroke-width="2" stroke-linecap="round" stroke-linejoin="round" opacity="1" fill="none"></path></g><g><path d="M638.11 772.07H419.5V869.41H638.11V772.07Z" fill="#fa830e" stroke="#333333" stroke-width="2" stroke-linecap="round" stroke-linejoin="round" opacity="1"></path><path d="M638.11 692.56H419.5V785.45H638.11V692.56Z" fill="#fa830e" stroke="#333333" stroke-width="2" stroke-linecap="round" stroke-linejoin="round" opacity="1"></path><path d="M419.5 869.41V1008.8" stroke="#333333" stroke-width="2" stroke-linecap="round" stroke-linejoin="round" opacity="1" fill="none"></path><path d="M638.11 869.41V1008.8" stroke="#333333" stroke-width="2" stroke-linecap="round" stroke-linejoin="round" opacity="1" fill="none"></path><path d="M982.28 701.61V1008.8" stroke="#333333" stroke-width="2" stroke-linecap="round" stroke-linejoin="round" opacity="1" fill="none"></path><path d="M528.8 836.67C533.94 836.67 538.09 832.56 538.09 827.49 538.09 822.42 533.94 818.32 528.8 818.32 523.67 818.32 519.51 822.42 519.51 827.49 519.51 832.56 523.67 836.67 528.8 836.67Z" fill="#beb4ff" stroke="#333333" stroke-width="2" stroke-linecap="round" stroke-linejoin="round" opacity="1"></path><path d="M528.8 752.7C533.94 752.7 538.09 748.6 538.09 743.53 538.09 738.46 533.94 734.35 528.8 734.35 523.67 734.35 519.51 738.46 519.51 743.53 519.51 748.6 523.67 752.7 528.8 752.7Z" fill="#beb4ff" stroke="#333333" stroke-width="2" stroke-linecap="round" stroke-linejoin="round" opacity="1"></path><path d="M1015.44 669.5H386.46V701.61H1015.44V669.5Z" fill="#fa830e" stroke="#333333" stroke-width="2" stroke-linecap="round" stroke-linejoin="round" opacity="1"></path></g><g><path d="M871.23 549.73L981.9 459.48 1043.93 535.48 915.78 640.07 853.75 563.98 862.78 556.66" fill="#499c2f" opacity="1" stroke-width="2" stroke="none"></path><path d="M871.23 549.73L981.9 459.48 1043.93 535.48 915.78 640.07 853.75 563.98 862.78 556.66" stroke="#333333" stroke-width="2" stroke-linecap="round" stroke-linejoin="round" opacity="1" fill="none"></path><path d="M1071.45 531.3L943.3 635.85 1005.34 711.89 1133.49 607.32 1071.45 531.3Z" fill="#499c2f" stroke="#333333" stroke-width="2" stroke-linecap="round" stroke-linejoin="round" opacity="1"></path><path d="M1133.38 625.34L1005.23 729.9 1067.28 805.94 1195.42 701.37 1133.38 625.34Z" fill="#499c2f" stroke="#333333" stroke-width="2" stroke-linecap="round" stroke-linejoin="round" opacity="1"></path><path d="M1361.89 720.91L1398.18 765.28 1203.91 923.83 877.02 523.32 1071.29 364.77 1318.95 668.19" fill="#499c2f" opacity="1" stroke-width="2" stroke="none"></path><path d="M1361.89 720.91L1398.18 765.28 1203.91 923.83 877.02 523.32 1071.29 364.77 1318.95 668.19" stroke="#333333" stroke-width="2" stroke-linecap="round" stroke-linejoin="round" opacity="1" fill="none"></path><path d="M1203.91 923.83L1271.64 1006.85" stroke="#333333" stroke-width="2" stroke-linecap="round" stroke-linejoin="round" opacity="1" fill="none"></path><path d="M1398.18 765.28L1465.91 848.4" stroke="#333333" stroke-width="2" stroke-linecap="round" stroke-linejoin="round" opacity="1" fill="none"></path><path d="M1325.89 676.74L1353.91 711.03" stroke="#333333" stroke-width="2" stroke-linecap="round" stroke-linejoin="round" opacity="1" fill="none"></path><path d="M1084.59 520.56L1091.81 529.49C1095.8 534.43 1095.04 541.65 1090.2 545.64L1050.39 578.13C1045.45 582.12 1038.23 581.36 1034.24 576.52L1027.03 567.68" stroke="#333333" stroke-width="2" stroke-linecap="round" stroke-linejoin="round" opacity="1" fill="none"></path></g><g><path d="M1162.35 849.62L1117.35 853.31C1117.24 853.31 1117.24 853.42 1117.24 853.42L1122.84 919.01C1122.84 919.12 1122.95 919.12 1122.95 919.12L1212.61 911.84C1212.72 911.84 1212.72 911.73 1212.72 911.73L1207.12 846.15C1207.12 846.04 1207.01 846.04 1207.01 846.04L1169.74 849.08" fill="#fa830e" opacity="1" stroke-width="2" stroke="none"></path><path d="M1162.35 849.62L1117.35 853.31C1117.24 853.31 1117.24 853.42 1117.24 853.42L1122.84 919.01C1122.84 919.12 1122.95 919.12 1122.95 919.12L1212.61 911.84C1212.72 911.84 1212.72 911.73 1212.72 911.73L1207.12 846.15C1207.12 846.04 1207.01 846.04 1207.01 846.04L1169.74 849.08" stroke="#333333" stroke-width="2" stroke-linecap="round" stroke-linejoin="round" opacity="1" fill="none"></path><path d="M1184.74 897.62L1181.83 864.5" stroke="#333333" stroke-width="2" stroke-linecap="round" stroke-linejoin="round" opacity="1" fill="none"></path><path d="M1166.49 899.14L1163.58 865.91" stroke="#333333" stroke-width="2" stroke-linecap="round" stroke-linejoin="round" opacity="1" fill="none"></path><path d="M1148.25 900.55L1145.45 867.43" stroke="#333333" stroke-width="2" stroke-linecap="round" stroke-linejoin="round" opacity="1" fill="none"></path><path d="M1171.42 943.76C1171.53 943.76 1171.53 943.76 1171.53 943.65L1187.09 879.59C1187.09 879.48 1187.09 879.48 1186.98 879.48L1099.45 859.5C1099.33 859.5 1099.33 859.5 1099.33 859.61L1083.78 923.68C1083.78 923.78 1083.78 923.78 1083.89 923.78L1171.42 943.76Z" fill="#ffffff" stroke="#333333" stroke-width="2" stroke-linecap="round" stroke-linejoin="round" opacity="1"></path><path d="M1149.37 921.72L1157.2 889.36" stroke="#333333" stroke-width="2" stroke-linecap="round" stroke-linejoin="round" opacity="1" fill="none"></path><path d="M1131.57 917.7L1139.41 885.24" stroke="#333333" stroke-width="2" stroke-linecap="round" stroke-linejoin="round" opacity="1" fill="none"></path><path d="M1113.66 913.58L1121.61 881.22" stroke="#333333" stroke-width="2" stroke-linecap="round" stroke-linejoin="round" opacity="1" fill="none"></path><path d="M1209.03 992.08C1209.14 992.08 1209.14 991.97 1209.14 991.97L1201.75 926.5C1201.75 926.39 1201.64 926.39 1201.64 926.39L1112.21 935.84C1112.09 935.84 1112.09 935.95 1112.09 935.95L1119.48 1001.42C1119.48 1001.53 1119.59 1001.53 1119.59 1001.53L1209.03 992.08Z" fill="#56466d" stroke="#333333" stroke-width="2" stroke-linecap="round" stroke-linejoin="round" opacity="1"></path><path d="M1177.57 952.12L1176.79 945.5" stroke="#333333" stroke-width="2" stroke-linecap="round" stroke-linejoin="round" opacity="1" fill="none"></path><path d="M1180.6 978.62L1178.25 958.2" stroke="#333333" stroke-width="2" stroke-linecap="round" stroke-linejoin="round" opacity="1" fill="none"></path><path d="M1162.35 980.57L1158.66 947.46" stroke="#333333" stroke-width="2" stroke-linecap="round" stroke-linejoin="round" opacity="1" fill="none"></path><path d="M1144.22 982.42L1140.41 949.41" stroke="#333333" stroke-width="2" stroke-linecap="round" stroke-linejoin="round" opacity="1" fill="none"></path><path d="M1149.81 1007.93C1149.93 1007.93 1149.93 1007.83 1149.81 1007.93L1149.93 843.87C1149.93 843.76 1149.93 843.76 1149.81 843.76L1040.24 843.76C1040.12 843.76 1040.12 843.76 1040.12 843.87L1040.12 1007.83C1040.12 1007.93 1040.12 1007.93 1040.24 1007.93L1149.81 1007.93Z" fill="#beb4ff" stroke="#333333" stroke-width="2" stroke-linecap="round" stroke-linejoin="round" opacity="1"></path><path d="M1114.22 901.85L1114.22 949.95C1114.22 953.54 1117.24 956.47 1120.94 956.47 1124.63 956.47 1127.65 953.54 1127.65 949.95L1127.65 901.85C1127.65 898.27 1124.63 895.34 1120.94 895.34 1117.24 895.23 1114.22 898.16 1114.22 901.85Z" stroke="#333333" stroke-width="2" stroke-linecap="round" stroke-linejoin="round" opacity="1" fill="none"></path></g><g><path d="M495.76 669.38C521.85 669.38 542.99 648.24 542.99 622.16 542.99 596.07 521.85 574.93 495.76 574.93 469.68 574.93 448.54 596.07 448.54 622.16 448.54 648.24 469.68 669.38 495.76 669.38Z" fill="#56466d" stroke="#333333" stroke-width="2" stroke-linecap="round" stroke-linejoin="round" opacity="1"></path><path d="M502.56 669.15C486.51 671.38 470.69 652.28 467.05 626.38 463.3 600.6 473.38 577.75 489.32 575.4L502.56 669.15Z" fill="#6e34a2" stroke="#333333" stroke-width="2" stroke-linecap="round" stroke-linejoin="round" opacity="1"></path><path d="M502.56 669.15C518.5 666.81 528.57 644.19 524.82 618.18 521.07 592.28 505.25 573.18 489.32 575.4L502.56 669.15Z" fill="#ffffff" stroke="#333333" stroke-width="2" stroke-linecap="round" stroke-linejoin="round" opacity="1"></path><path d="M489.43 575.52L502.56 669.15" stroke="#333333" stroke-width="2" stroke-linecap="round" stroke-linejoin="round" opacity="1" fill="none"></path></g></svg>